<!-- Generated by IcoMoon.io -->
<svg version="1.1" xmlns="http://www.w3.org/2000/svg" width="37" height="32" viewBox="0 0 37 32">
<title>pikachu_prev_ui_better</title>
<path d="M4.325 2.751c0.056 0 0.113 0 0.171 0.001 0.179 0.001 0.358 0.002 0.537 0.004 0.122 0.001 0.243 0.001 0.365 0.002 0.297 0.002 0.595 0.004 0.892 0.007 0.046 0.091 0.091 0.182 0.138 0.276 0.16 0 0.319 0 0.484 0 0 0.091 0 0.182 0 0.276 0.091 0 0.182 0 0.276 0 0.034 0.103 0.034 0.103 0.069 0.207 0.068 0.023 0.137 0.046 0.207 0.069 0 0.068 0 0.137 0 0.207 0.081 0.015 0.081 0.015 0.164 0.030 0.181 0.039 0.181 0.039 0.32 0.108 0 0.046 0 0.091 0 0.138 0.053-0.003 0.105-0.006 0.16-0.009 0.186 0.009 0.186 0.009 0.393 0.147 0.013 0.216 0.013 0.216 0 0.415 0.091 0 0.182 0 0.276 0 0.034 0.103 0.034 0.103 0.069 0.207 0.068 0.046 0.137 0.091 0.207 0.138 0 0.046 0 0.091 0 0.138 0.137 0.023 0.274 0.046 0.415 0.069 0.046 0.16 0.091 0.319 0.138 0.484 0.068 0 0.137 0 0.207 0 0 0.091 0 0.182 0 0.276 0.137 0.034 0.137 0.034 0.276 0.069 0 0.046 0 0.091 0 0.138 0.054 0.010 0.108 0.020 0.164 0.030 0.181 0.039 0.181 0.039 0.32 0.108 0.043 0.212 0.043 0.212 0.069 0.415 0.103 0.034 0.103 0.034 0.207 0.069 0 0.091 0 0.182 0 0.276 0.068 0 0.137 0 0.207 0 0 0.046 0 0.091 0 0.138 0.066 0.010 0.131 0.020 0.199 0.030 0.216 0.039 0.216 0.039 0.354 0.108 0.046 0.161 0.092 0.323 0.138 0.484 0.046 0.023 0.091 0.046 0.138 0.069 0.043 0.212 0.043 0.212 0.069 0.415 0.054 0.007 0.108 0.014 0.164 0.022 0.181 0.048 0.181 0.048 0.32 0.255 0 0.068 0 0.137 0 0.207 0.091 0.023 0.182 0.046 0.276 0.069 0 0.16 0 0.319 0 0.484 0.091 0.046 0.182 0.091 0.276 0.138 0 0.16 0 0.319 0 0.484 0.046 0 0.091 0 0.138 0 0 0.046 0 0.091 0 0.138 0.114 0.023 0.228 0.046 0.346 0.069 0 0.091 0 0.182 0 0.276 0.091 0.023 0.182 0.046 0.276 0.069 0 0.16 0 0.319 0 0.484 0.046 0 0.091 0 0.138 0 0 0.068 0 0.137 0 0.207 0.046 0 0.091 0 0.138 0 0 0.16 0 0.319 0 0.484 0.16 0.023 0.319 0.046 0.484 0.069 0.023 0.114 0.046 0.228 0.069 0.346 0.046 0 0.091 0 0.138 0 0 0.046 0 0.091 0 0.138 0.114 0 0.228 0 0.346 0 0.004-0.073 0.009-0.145 0.013-0.22 0.068-0.319 0.148-0.409 0.402-0.609 0.189-0.033 0.335-0.045 0.523-0.041 0.052 0 0.103-0.001 0.156-0.001 0.17 0 0.339 0.002 0.509 0.004 0.118 0 0.236 0 0.354 0.001 0.247 0 0.495 0.002 0.742 0.004 0.317 0.003 0.634 0.004 0.951 0.004 0.244 0 0.488 0.001 0.732 0.003 0.117 0.001 0.234 0.001 0.351 0.001 0.163 0.001 0.327 0.002 0.49 0.004 0.048 0 0.096 0 0.146 0 0.249 0.004 0.433 0.024 0.645 0.159 0 0.046 0 0.091 0 0.138 0.079 0.011 0.079 0.011 0.16 0.022 0.201 0.051 0.275 0.087 0.393 0.255 0 0.091 0 0.182 0 0.276 0.182 0 0.365 0 0.553 0 0-0.046 0-0.091 0-0.138 0.103-0.068 0.103-0.068 0.207-0.138 0.051-0.247 0.051-0.247 0.069-0.484 0.044-0.007 0.088-0.014 0.134-0.022 0.071-0.024 0.071-0.024 0.143-0.048 0.023-0.068 0.046-0.137 0.069-0.207 0.083-0.062 0.083-0.062 0.168-0.125 0.208-0.177 0.241-0.309 0.315-0.566 0.046-0.023 0.091-0.046 0.138-0.069 0.032-0.131 0.032-0.131 0.043-0.281 0.009-0.090 0.017-0.18 0.026-0.272 0.103-0.034 0.103-0.034 0.207-0.069 0.023-0.068 0.046-0.137 0.069-0.207 0.068 0 0.137 0 0.207 0 0.023-0.091 0.046-0.182 0.069-0.276 0.068 0 0.137 0 0.207 0 0.023-0.091 0.046-0.182 0.069-0.276 0.068 0 0.137 0 0.207 0 0-0.137 0-0.274 0-0.415 0.091-0.023 0.182-0.046 0.276-0.069 0-0.091 0-0.182 0-0.276 0.091 0 0.182 0 0.276 0 0.023-0.091 0.046-0.182 0.069-0.276 0.046 0 0.091 0 0.138 0 0.046-0.137 0.091-0.274 0.138-0.415 0.046 0 0.091 0 0.138 0 0-0.114 0-0.228 0-0.346 0.091 0 0.182 0 0.276 0 0-0.091 0-0.182 0-0.276 0.091 0 0.182 0 0.276 0 0-0.091 0-0.182 0-0.276 0.091 0 0.182 0 0.276 0 0-0.091 0-0.182 0-0.276 0.068 0 0.137 0 0.207 0 0.046-0.091 0.091-0.182 0.138-0.276 0.046 0 0.091 0 0.138 0 0.023-0.068 0.046-0.137 0.069-0.207 0.068 0 0.137 0 0.207 0 0.023-0.091 0.046-0.182 0.069-0.276 0.068 0 0.137 0 0.207 0 0-0.091 0-0.182 0-0.276 0.091 0 0.182 0 0.276 0 0.023-0.091 0.046-0.182 0.069-0.276 0.091 0 0.182 0 0.276 0 0-0.046 0-0.091 0-0.138 0.207-0.138 0.207-0.138 0.415-0.138 0-0.068 0-0.137 0-0.207 0.046 0 0.091 0 0.138 0 0-0.046 0-0.091 0-0.138 0.046 0 0.091 0 0.138 0 0-0.046 0-0.091 0-0.138 0.091 0 0.182 0 0.276 0 0.023-0.091 0.046-0.182 0.069-0.276 0.137 0 0.274 0 0.415 0 0.023-0.068 0.046-0.137 0.069-0.207 0.092-0.092 0.184-0.184 0.276-0.276 0.023-0.068 0.046-0.137 0.069-0.207 0.239-0.034 0.239-0.034 0.484-0.069 0-0.046 0-0.091 0-0.138 0.248-0.165 0.357-0.154 0.651-0.152 0.087 0 0.173 0.001 0.263 0.001s0.181 0.002 0.274 0.003c0.092 0.001 0.185 0.001 0.277 0.002 0.226 0.002 0.452 0.004 0.678 0.007 0-0.046 0-0.091 0-0.138 0.068 0 0.137 0 0.207 0 0 0.046 0 0.091 0 0.138 0.205 0 0.411 0 0.622 0 0.023 0.091 0.046 0.182 0.069 0.276 0.068 0 0.137 0 0.207 0 0.062 0.264 0.078 0.509 0.078 0.78 0 0.082 0 0.164 0 0.249s-0.001 0.17-0.001 0.258c0 0.086 0.001 0.171 0.001 0.26 0 0.123 0 0.123 0 0.248 0 0.075 0 0.15 0 0.227-0.009 0.189-0.009 0.189-0.078 0.397-0.046 0.023-0.091 0.046-0.138 0.069-0.023 0.080-0.046 0.16-0.069 0.242-0.023 0.080-0.046 0.16-0.069 0.242-0.046 0.023-0.091 0.046-0.138 0.069-0.078 0.139-0.078 0.139-0.138 0.276-0.068 0-0.137 0-0.207 0 0.004 0.111 0.004 0.111 0.009 0.225-0.009 0.259-0.009 0.259-0.073 0.382-0.102 0.213-0.121 0.42-0.151 0.654-0.012 0.087-0.023 0.175-0.035 0.265-0.008 0.067-0.017 0.133-0.025 0.202-0.103 0.034-0.103 0.034-0.207 0.069-0.006 0.051-0.011 0.103-0.017 0.155-0.062 0.229-0.144 0.32-0.328 0.467-0.068 0-0.137 0-0.207 0 0 0.137 0 0.274 0 0.415-0.091 0.023-0.182 0.046-0.276 0.069 0 0.228 0 0.456 0 0.691-0.046 0.023-0.091 0.046-0.138 0.069-0.050 0.16-0.097 0.321-0.138 0.484-0.239 0.034-0.239 0.034-0.484 0.069-0.009 0.067-0.017 0.134-0.026 0.203-0.021 0.105-0.021 0.105-0.043 0.212-0.046 0.023-0.091 0.046-0.138 0.069-0.028 0.16-0.051 0.322-0.069 0.484-0.091 0.023-0.182 0.046-0.276 0.069 0 0.091 0 0.182 0 0.276-0.091 0-0.182 0-0.276 0-0.023 0.091-0.046 0.182-0.069 0.276-0.046 0-0.091 0-0.138 0-0.046 0.091-0.091 0.182-0.138 0.276-0.046 0-0.091 0-0.138 0-0.023 0.137-0.046 0.274-0.069 0.415-0.091 0.023-0.182 0.046-0.276 0.069 0 0.068 0 0.137 0 0.207-0.068 0.023-0.137 0.046-0.207 0.069-0.181 0.152-0.282 0.324-0.393 0.531-0.030 0.056-0.060 0.112-0.092 0.169-0.023 0.043-0.045 0.085-0.068 0.129-0.068 0-0.137 0-0.207 0 0 0.068 0 0.137 0 0.207-0.091 0-0.182 0-0.276 0 0 0.068 0 0.137 0 0.207-0.091 0.023-0.182 0.046-0.276 0.069-0.009 0.067-0.017 0.134-0.026 0.203-0.021 0.105-0.021 0.105-0.043 0.212-0.046 0.023-0.091 0.046-0.138 0.069-0.045 0.14-0.045 0.14-0.069 0.276-0.068 0-0.137 0-0.207 0 0 0.068 0 0.137 0 0.207 0.046 0 0.091 0 0.138 0 0.013 0.064 0.027 0.128 0.041 0.194 0.018 0.083 0.036 0.166 0.055 0.251 0.018 0.083 0.035 0.165 0.053 0.25 0.019 0.067 0.039 0.134 0.059 0.203 0.046 0.023 0.091 0.046 0.138 0.069 0 0.16 0 0.319 0 0.484 0.091 0 0.182 0 0.276 0 0 0.091 0 0.182 0 0.276 0.044 0.007 0.088 0.014 0.134 0.022 0.071 0.024 0.071 0.024 0.143 0.048 0.023 0.068 0.046 0.137 0.069 0.207 0.046 0.023 0.091 0.046 0.138 0.069 0.12 0.324 0.096 0.695 0.112 1.035 0.009 0.069 0.017 0.138 0.026 0.209 0.046 0.023 0.091 0.046 0.138 0.069 0.002 0.408 0.003 0.817 0.004 1.225 0 0.139 0.001 0.278 0.001 0.417 0.001 0.2 0.001 0.399 0.002 0.599 0 0.062 0.001 0.124 0.001 0.188 0 0.087 0 0.087 0 0.176 0 0.051 0 0.102 0 0.154-0.009 0.148-0.037 0.278-0.077 0.42-0.046 0-0.091 0-0.138 0 0.001 0.067 0.001 0.067 0.001 0.135 0.001 0.203 0.002 0.405 0.003 0.608 0.001 0.070 0.001 0.14 0.002 0.213 0 0.102 0 0.102 0.001 0.205 0.001 0.093 0.001 0.093 0.001 0.189-0.007 0.162-0.023 0.295-0.077 0.447-0.046 0.023-0.091 0.046-0.138 0.069-0.019 0.046-0.037 0.091-0.056 0.138-0.082 0.138-0.082 0.138-0.264 0.19-0.054 0.006-0.108 0.011-0.164 0.017 0 0.046 0 0.091 0 0.138-0.046 0-0.091 0-0.138 0 0 0.16 0 0.319 0 0.484-0.046 0.023-0.091 0.046-0.138 0.069-0.029 0.074-0.057 0.148-0.086 0.225-0.118 0.293-0.279 0.423-0.536 0.605-0.068 0.023-0.137 0.046-0.207 0.069-0.023 0.068-0.046 0.137-0.069 0.207-0.046 0-0.091 0-0.138 0 0 0.046 0 0.091 0 0.138-0.046 0-0.091 0-0.138 0-0.023 0.114-0.046 0.228-0.069 0.346-0.137 0.023-0.274 0.046-0.415 0.069-0.023 0.068-0.046 0.137-0.069 0.207-0.16 0.023-0.319 0.046-0.484 0.069-0.009 0.056-0.017 0.111-0.026 0.168-0.014 0.058-0.029 0.117-0.043 0.177-0.046 0.023-0.091 0.046-0.138 0.069-0.023 0.046-0.046 0.091-0.069 0.138-0.069 0.138-0.069 0.138-0.207 0.207-0.185 0.009-0.368 0.003-0.553 0-0.046 0.091-0.091 0.182-0.138 0.276-0.251 0-0.502 0-0.76 0 0 0.046 0 0.091 0 0.138-0.16 0.046-0.319 0.091-0.484 0.138 0 0.046 0 0.091 0 0.138-1.055 0.391-2.065 0.384-3.179 0.346 0 0.046 0 0.091 0 0.138-0.403 0.139-0.763 0.157-1.188 0.154-0.067 0-0.135 0-0.204 0-0.142 0-0.284-0.001-0.426-0.002-0.214-0.001-0.428-0.001-0.642-0.001-2.075-0.004-2.075-0.004-2.517-0.151 0-0.046 0-0.091 0-0.138-0.137 0-0.274 0-0.415 0 0-0.046 0-0.091 0-0.138-0.046 0-0.091 0-0.138 0 0-0.046 0-0.091 0-0.138-0.091-0.023-0.182-0.046-0.276-0.069 0-0.046 0-0.091 0-0.138-0.066-0.010-0.131-0.020-0.199-0.030-0.216-0.039-0.216-0.039-0.354-0.108 0-0.046 0-0.091 0-0.138-0.062 0.002-0.125 0.003-0.189 0.005-0.082 0.001-0.163 0.003-0.247 0.004-0.081 0.002-0.162 0.003-0.245 0.005-0.217-0.014-0.217-0.014-0.424-0.152 0-0.046 0-0.091 0-0.138-0.053-0.007-0.105-0.014-0.16-0.022-0.199-0.051-0.273-0.090-0.393-0.255 0-0.068 0-0.137 0-0.207-0.16-0.023-0.319-0.046-0.484-0.069 0-0.068 0-0.137 0-0.207-0.098 0.002-0.098 0.002-0.199 0.004-0.216-0.004-0.216-0.004-0.354-0.073 0-0.068 0-0.137 0-0.207-0.137-0.023-0.274-0.046-0.415-0.069-0.034-0.103-0.034-0.103-0.069-0.207-0.046-0.019-0.091-0.037-0.138-0.056-0.046-0.027-0.091-0.054-0.138-0.082-0.052-0.216-0.052-0.216-0.069-0.415-0.068 0-0.137 0-0.207 0 0-0.114 0-0.228 0-0.346-0.046 0-0.091 0-0.138 0 0-0.046 0-0.091 0-0.138-0.056-0.017-0.111-0.034-0.168-0.052-0.177-0.086-0.177-0.086-0.233-0.233-0.004-0.043-0.009-0.086-0.013-0.13-0.046 0-0.091 0-0.138 0-0.185-0.278-0.149-0.431-0.138-0.76-0.046 0-0.091 0-0.138 0-0.068-0.342-0.068-0.342-0.138-0.691-0.114-0.023-0.228-0.046-0.346-0.069-0.197-0.163-0.324-0.315-0.415-0.553-0.012-0.183-0.016-0.358-0.013-0.541 0-0.052 0-0.104 0.001-0.157 0.001-0.165 0.003-0.33 0.004-0.494 0.001-0.112 0.001-0.224 0.002-0.336 0.002-0.274 0.004-0.548 0.007-0.822-0.046 0-0.091 0-0.138 0 0-0.342 0-0.684 0-1.037 0.046 0 0.091 0 0.138 0-0.003-0.086-0.006-0.171-0.009-0.259-0.001-0.226 0.019-0.378 0.147-0.57 0.046 0 0.091 0 0.138 0 0.023-0.114 0.046-0.228 0.069-0.346 0.068 0 0.137 0 0.207 0 0.023-0.091 0.046-0.182 0.069-0.276 0.046 0 0.091 0 0.138 0 0.023-0.319 0.046-0.639 0.069-0.968 0.068 0 0.137 0 0.207 0-0.003-0.087-0.006-0.174-0.009-0.264-0.008-0.24 0.005-0.283 0.147-0.497 0.046 0 0.091 0 0.138 0 0-0.046 0-0.091 0-0.138 0.046 0 0.091 0 0.138 0 0-0.046 0-0.091 0-0.138 0.091-0.023 0.182-0.046 0.276-0.069 0-0.068 0-0.137 0-0.207 0.046 0 0.091 0 0.138 0 0-0.114 0-0.228 0-0.346-0.043-0.010-0.086-0.020-0.13-0.030-0.147-0.039-0.147-0.039-0.285-0.108 0-0.046 0-0.091 0-0.138-0.064-0.011-0.064-0.011-0.13-0.022-0.147-0.048-0.147-0.048-0.285-0.255 0-0.091 0-0.182 0-0.276-0.091-0.023-0.182-0.046-0.276-0.069 0-0.068 0-0.137 0-0.207-0.068 0-0.137 0-0.207 0 0-0.068 0-0.137 0-0.207-0.091 0-0.182 0-0.276 0 0-0.046 0-0.091 0-0.138-0.046 0-0.091 0-0.138 0 0-0.046 0-0.091 0-0.138-0.046 0-0.091 0-0.138 0-0.020-0.053-0.040-0.105-0.060-0.16-0.075-0.196-0.075-0.196-0.216-0.393-0.068-0.023-0.137-0.046-0.207-0.069 0-0.046 0-0.091 0-0.138-0.040-0.006-0.080-0.011-0.121-0.017-0.206-0.069-0.299-0.157-0.432-0.328-0.017-0.19-0.017-0.19 0-0.346-0.046 0-0.091 0-0.138 0 0-0.046 0-0.091 0-0.138-0.046 0-0.091 0-0.138 0 0-0.091 0-0.182 0-0.276-0.068-0.023-0.137-0.046-0.207-0.069-0.023-0.046-0.046-0.091-0.069-0.138-0.068-0.023-0.137-0.046-0.207-0.069-0.023-0.068-0.046-0.137-0.069-0.207-0.068-0.046-0.137-0.091-0.207-0.138-0.023-0.161-0.046-0.322-0.069-0.484-0.036-0.034-0.071-0.068-0.108-0.104-0.099-0.104-0.099-0.104-0.112-0.359 0.004-0.076 0.009-0.151 0.013-0.229-0.081-0.015-0.081-0.015-0.164-0.030-0.181-0.039-0.181-0.039-0.32-0.108 0-0.046 0-0.091 0-0.138-0.045-0.015-0.089-0.031-0.135-0.047-0.141-0.091-0.141-0.091-0.184-0.256-0.003-0.063-0.006-0.125-0.010-0.19-0.004-0.063-0.008-0.126-0.012-0.191-0.002-0.048-0.004-0.097-0.005-0.146-0.103-0.034-0.103-0.034-0.207-0.069 0-0.228 0-0.456 0-0.691-0.068 0-0.137 0-0.207 0-0.023-0.091-0.046-0.182-0.069-0.276-0.091 0-0.182 0-0.276 0-0.023-0.068-0.046-0.137-0.069-0.207-0.103-0.068-0.103-0.068-0.207-0.138-0.015-0.182-0.019-0.346-0.013-0.527 0.001-0.049 0.002-0.098 0.003-0.148 0.002-0.121 0.006-0.241 0.010-0.362-0.046 0-0.091 0-0.138 0-0.079-0.26-0.089-0.516-0.104-0.786-0.018-0.319-0.045-0.627-0.104-0.942-0.114 0-0.228 0-0.346 0-0.009-0.064-0.009-0.064-0.017-0.13-0.046-0.184-0.046-0.184-0.328-0.285 0-0.433 0-0.867 0-1.313 0.091-0.023 0.182-0.046 0.276-0.069 0.023-0.091 0.046-0.182 0.069-0.276 0.182 0 0.365 0 0.553 0 0-0.046 0-0.091 0-0.138 0.31-0.156 0.6-0.156 0.939-0.152z"></path>
<path d="M31.965 3.292c0.122 0 0.122 0 0.247 0 0.598 0.006 0.598 0.006 0.755 0.164-0.264 0.095-0.489 0.047-0.76 0 0.023 0.068 0.046 0.137 0.069 0.207 0.046 0 0.091 0 0.138 0 0 0.046 0 0.091 0 0.138-0.231 0.154-0.424 0.14-0.695 0.136-0.253 0.005-0.411 0.072-0.592 0.25-0.082 0.086-0.164 0.172-0.246 0.259-0.181 0.165-0.384 0.235-0.61 0.323-0.117 0.089-0.233 0.181-0.346 0.276-0.053 0.031-0.106 0.061-0.161 0.093-0.267 0.166-0.481 0.38-0.709 0.595-0.147 0.126-0.271 0.196-0.442 0.28-0.107 0.106-0.107 0.106-0.207 0.233-0.218 0.259-0.45 0.497-0.691 0.734-0.272 0.268-0.531 0.541-0.779 0.832-0.235 0.265-0.489 0.51-0.742 0.757 0.023 0.068 0.046 0.137 0.069 0.207-0.078 0.084-0.078 0.084-0.157 0.169-0.069 0.075-0.137 0.149-0.206 0.224-0.034 0.037-0.068 0.073-0.103 0.111-0.406 0.385-0.406 0.385-0.571 0.878-0.027 0.358-0.122 0.509-0.378 0.758-0.062 0.061-0.124 0.122-0.188 0.185-0.065 0.062-0.131 0.125-0.198 0.189s-0.133 0.129-0.199 0.194c-0.162 0.158-0.325 0.315-0.488 0.471 0.046 0 0.091 0 0.138 0 0.068 0 0.137 0 0.207 0-0.069 0.115-0.138 0.23-0.207 0.346-0.031 0.057-0.063 0.114-0.095 0.173-0.131 0.202-0.284 0.353-0.458 0.518-0.032 0.035-0.064 0.070-0.096 0.107-0.265 0.241-0.667 0.32-1.018 0.33-0.268-0.022-0.268-0.022-0.488-0.086-0.382-0.107-0.767-0.12-1.162-0.143 0-0.068 0-0.137 0-0.207 0.114-0.023 0.228-0.046 0.346-0.069-0.034-0.171-0.034-0.171-0.069-0.346 0.103 0.068 0.103 0.068 0.207 0.138 0.142 0.031 0.142 0.031 0.289 0.043 0.087 0.009 0.174 0.017 0.264 0.026 0.023-0.046 0.046-0.091 0.069-0.138-0.068 0-0.137 0-0.207 0 0-0.046 0-0.091 0-0.138-0.114-0.023-0.228-0.046-0.346-0.069 0-0.046 0-0.091 0-0.138-0.14-0.027-0.279-0.054-0.418-0.081-0.134-0.057-0.134-0.057-0.273-0.334-0.639 0-1.277 0-1.935 0 0 0.046 0 0.091 0 0.138 0.068 0 0.137 0 0.207 0 0.117 0.173 0.117 0.173 0.207 0.346-0.137 0-0.274 0-0.415 0-0.023-0.068-0.046-0.137-0.069-0.207-0.053 0.011-0.105 0.023-0.16 0.035-0.181 0.034-0.348 0.035-0.531 0.035-0.023-0.114-0.046-0.228-0.069-0.346-0.254-0.002-0.507 0-0.76 0.004-0.071-0.001-0.142-0.002-0.216-0.002-0.551 0.012-0.791 0.161-1.167 0.551-0.135 0.1-0.272 0.188-0.415 0.276 0.182 0 0.365 0 0.553 0 0.023-0.068 0.046-0.137 0.069-0.207 0.31 0 0.594 0.003 0.899 0.069 0 0.068 0 0.137 0 0.207 0.068 0 0.137 0 0.207 0-0.108 0.168-0.108 0.168-0.276 0.346-0.496 0.098-1.004 0.096-1.508 0.112-0.093 0.004-0.186 0.007-0.28 0.011-0.088 0.003-0.176 0.006-0.266 0.009-0.12 0.004-0.12 0.004-0.243 0.009-0.192-0.003-0.192-0.003-0.33-0.072 0.034-0.205 0.034-0.205 0.069-0.415-0.114-0.023-0.228-0.046-0.346-0.069-0.087-0.297-0.043-0.475 0.069-0.76-0.049-0.034-0.049-0.034-0.099-0.069-0.167-0.214-0.155-0.423-0.177-0.691-0.137 0.034-0.137 0.034-0.276 0.069 0.006-0.111 0.006-0.111 0.013-0.225-0.013-0.268-0.031-0.354-0.22-0.536-0.068-0.023-0.137-0.046-0.207-0.069-0.023-0.092-0.046-0.184-0.069-0.276-0.068-0.023-0.137-0.046-0.207-0.069 0-0.205 0-0.411 0-0.622 0.023 0.091 0.046 0.182 0.069 0.276 0.068 0.023 0.137 0.046 0.207 0.069 0.020 0.066 0.040 0.131 0.060 0.199 0.095 0.263 0.19 0.288 0.423 0.423 0 0.091 0 0.182 0 0.276 0.046 0 0.091 0 0.138 0 0 0.046 0 0.091 0 0.138 0.046 0 0.091 0 0.138 0 0.008 0.039 0.017 0.078 0.025 0.119 0.012 0.051 0.023 0.101 0.035 0.154 0.017 0.076 0.017 0.076 0.034 0.153 0.032 0.142 0.032 0.142 0.182 0.197 0.031 0.064 0.063 0.128 0.095 0.194 0.109 0.213 0.219 0.333 0.389 0.497 0 0.046 0 0.091 0 0.138 0.046 0 0.091 0 0.138 0 0 0.046 0 0.091 0 0.138 0.311 0.031 0.447 0.026 0.708-0.155 0.15-0.15 0.272-0.297 0.397-0.467 0.046 0 0.091 0 0.138 0 0-0.046 0-0.091 0-0.138 0.546-0.112 1.072-0.152 1.629-0.151 0.090 0 0.090 0 0.182 0 0.435 0.004 0.435 0.004 0.605 0.048 0.173 0.041 0.328 0.039 0.505 0.036 0.071-0.001 0.141-0.002 0.214-0.003 0.146-0.002 0.293-0.005 0.439-0.008 1.262-0.013 1.262-0.013 1.74 0.346 0.051 0.036 0.101 0.073 0.153 0.11 0.132 0.106 0.132 0.106 0.3 0.27 0.275 0.174 0.552 0.134 0.868 0.112 0.024-0.050 0.049-0.1 0.074-0.152 0.197-0.386 0.373-0.667 0.715-0.934 0.368-0.299 0.489-0.755 0.639-1.187 0.135-0.314 0.287-0.51 0.577-0.691 0.26-0.184 0.343-0.348 0.484-0.631 0.046 0 0.091 0 0.138 0 0.046-0.114 0.091-0.228 0.138-0.346 0.046 0 0.091 0 0.138 0 0.023-0.068 0.046-0.137 0.069-0.207 0.077-0.073 0.077-0.073 0.155-0.147 0.166-0.173 0.247-0.293 0.354-0.501 0.26-0.489 0.644-0.805 1.094-1.117 0.133-0.099 0.133-0.099 0.235-0.251 0.032-0.042 0.063-0.083 0.096-0.126 0.046 0 0.091 0 0.138 0 0.019-0.041 0.037-0.083 0.056-0.125 0.083-0.152 0.154-0.25 0.289-0.359 0.068 0 0.137 0 0.207 0 0-0.046 0-0.091 0-0.138 0.12-0.111 0.245-0.217 0.372-0.32 0.069-0.056 0.138-0.113 0.209-0.171 0.18-0.131 0.18-0.131 0.318-0.131 0-0.046 0-0.091 0-0.138 0.114-0.090 0.114-0.090 0.272-0.19 0.085-0.055 0.085-0.055 0.171-0.111 0.116-0.074 0.232-0.147 0.349-0.221 0.326-0.207 0.326-0.207 0.586-0.489 0.439-0.505 1.15-0.48 1.767-0.467zM16.449 12.855c-0.023 0.046-0.046 0.091-0.069 0.138 0.046 0 0.091 0 0.138 0-0.023-0.046-0.046-0.091-0.069-0.138z"></path>
<path d="M3.663 5.114c0.023 0 0.046 0 0.069 0 0.005 0.099 0.005 0.099 0.010 0.2 0.005 0.087 0.010 0.173 0.016 0.263 0.005 0.086 0.010 0.172 0.015 0.26 0.017 0.236 0.017 0.236 0.093 0.407 0.111 0.278 0.143 0.566 0.186 0.862 0.014 0.092 0.014 0.092 0.028 0.185 0.023 0.15 0.045 0.3 0.067 0.45 0.065 0.013 0.065 0.013 0.131 0.027 0.25 0.072 0.335 0.277 0.469 0.488 0.113 0.217 0.163 0.419 0.204 0.659 0.031 0.172 0.097 0.323 0.164 0.484 0 0.068 0 0.137 0 0.207 0.046 0 0.091 0 0.138 0 0.046 0.068 0.091 0.137 0.138 0.207 0.103 0.034 0.103 0.034 0.207 0.069 0.223 0.328 0.314 0.575 0.346 0.968 0.046 0 0.091 0 0.138 0 0.207 0.397 0.207 0.397 0.207 0.553 0.079 0.026 0.079 0.026 0.16 0.052 0.248 0.115 0.345 0.236 0.442 0.492 0.034 0.096 0.068 0.192 0.101 0.288 0.079 0.188 0.202 0.327 0.334 0.481 0 0.046 0 0.091 0 0.138 0.091 0.023 0.182 0.046 0.276 0.069 0 0.046 0 0.091 0 0.138 0.091 0.023 0.182 0.046 0.276 0.069 0 0.046 0 0.091 0 0.138 0.046 0 0.091 0 0.138 0 0.016 0.077 0.031 0.154 0.048 0.233 0.063 0.262 0.063 0.262 0.272 0.35 0.081 0.019 0.081 0.019 0.164 0.039 0 0.046 0 0.091 0 0.138 0.041 0.005 0.083 0.010 0.125 0.015 0.205 0.073 0.249 0.175 0.359 0.36 0.139 0.236 0.231 0.347 0.484 0.454 0.104 0.095 0.104 0.095 0.207 0.207 0.047 0.046 0.094 0.091 0.143 0.138 0.151 0.156 0.265 0.274 0.288 0.495-0.036 0.556-0.28 0.896-0.683 1.27-0.151 0.165-0.175 0.372-0.231 0.585-0.023 0.043-0.047 0.086-0.071 0.13-0.082 0.179-0.091 0.326-0.102 0.522-0.015 0.274-0.066 0.478-0.173 0.73 0 0.046 0 0.091 0 0.138 0.193-0.143 0.208-0.212 0.246-0.458 0.010-0.077 0.020-0.154 0.030-0.233 0.046-0.023 0.091-0.046 0.138-0.069 0.020-0.138 0.035-0.276 0.048-0.415 0.065-0.478 0.231-0.771 0.575-1.106 0.068-0.046 0.137-0.091 0.207-0.138 0.014-0.137 0.027-0.274 0.038-0.412 0.050-0.229 0.201-0.343 0.377-0.487 0.163 0.506-0.172 1.156-0.384 1.616-0.033 0.060-0.066 0.12-0.099 0.181-0.033 0.070-0.066 0.14-0.099 0.212-0.108 0.203-0.108 0.203-0.255 0.359-0.167 0.245-0.171 0.444-0.187 0.735-0.012 0.146-0.012 0.146-0.081 0.215-0.026 0.184-0.049 0.368-0.069 0.553-0.060 0.544-0.060 0.544-0.138 0.622-0.031 0.635 0.016 1.268 0.069 1.901 0.055 0.686 0.083 1.362 0.058 2.050-0.008 0.33-0.007 0.555 0.219 0.818 0.068 0.023 0.137 0.046 0.207 0.069 0.111 0.153 0.111 0.153 0.22 0.341 0.037 0.062 0.073 0.124 0.111 0.188 0.083 0.162 0.083 0.162 0.083 0.3 0.068 0.023 0.137 0.046 0.207 0.069 0 0.046 0 0.091 0 0.138 0.046 0 0.091 0 0.138 0 0 0.046 0 0.091 0 0.138 0.046 0 0.091 0 0.138 0 0 0.046 0 0.091 0 0.138 0.091 0.023 0.182 0.046 0.276 0.069 0 0.046 0 0.091 0 0.138 0.058 0.019 0.117 0.037 0.177 0.056 0.761 0.263 0.761 0.263 0.998 0.566 0 0.068 0 0.137 0 0.207 0.053 0.009 0.105 0.017 0.16 0.026 0.186 0.043 0.186 0.043 0.393 0.181 0.205 0.032 0.205 0.032 0.428 0.043 0.075 0.005 0.15 0.010 0.228 0.016 0.057 0.003 0.115 0.007 0.174 0.010 0 0.046 0 0.091 0 0.138 0.251 0.046 0.502 0.091 0.76 0.138 0 0.046 0 0.091 0 0.138 0.054 0.019 0.108 0.037 0.164 0.056 0.181 0.082 0.181 0.082 0.32 0.289-0.114 0-0.228 0-0.346 0 0-0.046 0-0.091 0-0.138-0.046 0-0.091 0-0.138 0 0-0.046 0-0.091 0-0.138-0.096 0.004-0.096 0.004-0.194 0.009-0.22-0.009-0.22-0.009-0.428-0.147-0.189-0.042-0.375-0.080-0.566-0.112-0.052-0.009-0.104-0.019-0.157-0.028-0.128-0.023-0.255-0.045-0.383-0.067 0-0.068 0-0.137 0-0.207-0.16-0.023-0.319-0.046-0.484-0.069-0.003-0.043-0.006-0.086-0.009-0.13-0.020-0.048-0.040-0.097-0.060-0.147-0.202-0.081-0.202-0.081-0.415-0.138-0.046-0.046-0.091-0.091-0.138-0.138-0.114-0.048-0.23-0.094-0.346-0.138-0.105-0.042-0.211-0.085-0.315-0.13-0.051-0.021-0.103-0.042-0.156-0.064-0.319-0.174-0.466-0.41-0.622-0.731-0.133-0.255-0.246-0.434-0.475-0.609-0.272-0.209-0.343-0.425-0.436-0.747-0.018-0.050-0.037-0.1-0.056-0.152-0.134-0.366-0.19-0.704-0.221-1.092-0.078-0.023-0.157-0.046-0.238-0.069-0.134-0.055-0.134-0.055-0.246-0.138-0.067-0.193-0.066-0.345-0.069-0.553-0.046 0-0.091 0-0.138 0-0.379-2.805-0.379-2.805 0.203-3.65 0.047-0.050 0.094-0.1 0.143-0.151 0.268-0.378 0.316-0.699 0.377-1.155 0.088-0.527 0.261-0.905 0.66-1.264 0.174-0.221 0.269-0.354 0.302-0.635-0.013-0.208-0.013-0.208-0.164-0.402-0.142-0.082-0.142-0.082-0.276-0.138 0-0.046 0-0.091 0-0.138-0.068 0-0.137 0-0.207 0-0.056-0.099-0.112-0.199-0.168-0.298-0.031-0.055-0.063-0.111-0.095-0.168-0.082-0.156-0.082-0.156-0.151-0.364-0.173-0.084-0.173-0.084-0.346-0.138 0-0.046 0-0.091 0-0.138-0.068 0-0.137 0-0.207 0-0.096-0.114-0.096-0.114-0.186-0.264-0.030-0.049-0.060-0.098-0.092-0.148-0.068-0.141-0.068-0.141-0.068-0.349-0.091 0-0.182 0-0.276 0-0.023-0.046-0.046-0.091-0.069-0.138-0.054-0.030-0.108-0.060-0.164-0.091-0.211-0.136-0.273-0.241-0.389-0.462-0.179-0.335-0.345-0.566-0.622-0.829-0.251-0.258-0.388-0.461-0.415-0.829-0.046 0-0.091 0-0.138 0-0.092-0.276-0.184-0.553-0.276-0.829-0.079-0.013-0.079-0.013-0.16-0.026-0.186-0.043-0.186-0.043-0.393-0.181-0.058-0.136-0.058-0.136-0.104-0.302-0.026-0.092-0.026-0.092-0.053-0.187-0.034-0.137-0.064-0.276-0.090-0.415-0.095-0.48-0.204-0.688-0.592-0.984-0.227-0.205-0.276-0.447-0.336-0.739-0.014-0.060-0.028-0.121-0.042-0.183-0.121-0.601-0.126-1.211-0.096-1.822 0.023-0.023 0.046-0.046 0.069-0.069z"></path>
<path d="M12.51 9.469c0.023 0.091 0.046 0.182 0.069 0.276 0.068 0.023 0.137 0.046 0.207 0.069 0.020 0.066 0.040 0.131 0.060 0.199 0.095 0.263 0.19 0.288 0.423 0.423 0 0.091 0 0.182 0 0.276 0.046 0 0.091 0 0.138 0 0 0.046 0 0.091 0 0.138 0.046 0 0.091 0 0.138 0 0.008 0.039 0.017 0.078 0.025 0.119 0.017 0.076 0.017 0.076 0.035 0.154 0.011 0.051 0.022 0.101 0.034 0.153 0.032 0.142 0.032 0.142 0.182 0.197 0.031 0.064 0.063 0.128 0.095 0.194 0.109 0.213 0.219 0.333 0.389 0.497 0 0.046 0 0.091 0 0.138 0.046 0 0.091 0 0.138 0 0 0.046 0 0.091 0 0.138 0.311 0.031 0.447 0.026 0.708-0.155 0.15-0.15 0.272-0.297 0.397-0.467 0.046 0 0.091 0 0.138 0 0-0.046 0-0.091 0-0.138 0.546-0.112 1.072-0.152 1.628-0.151 0.090 0 0.090 0 0.182 0 0.435 0.004 0.435 0.004 0.605 0.048 0.173 0.041 0.328 0.039 0.505 0.036 0.071-0.001 0.141-0.002 0.214-0.003 0.146-0.002 0.293-0.005 0.439-0.008 1.262-0.013 1.262-0.013 1.74 0.346 0.051 0.036 0.101 0.073 0.153 0.11 0.132 0.106 0.132 0.106 0.3 0.27 0.275 0.174 0.552 0.134 0.868 0.112 0.024-0.050 0.049-0.1 0.074-0.152 0.197-0.386 0.373-0.667 0.714-0.933 0.386-0.315 0.511-0.81 0.663-1.265 0.023 0 0.046 0 0.069 0 0.014 0.418 0.014 0.418 0 0.553-0.046 0.046-0.091 0.091-0.138 0.138-0.030 0.076-0.060 0.151-0.091 0.229-0.129 0.313-0.347 0.502-0.602 0.72-0.172 0.198-0.222 0.373-0.292 0.624-0.023 0.081-0.046 0.162-0.070 0.245-0.025 0.092-0.025 0.092-0.051 0.187 0.043-0.013 0.086-0.026 0.13-0.039 0.147-0.030 0.147-0.030 0.285 0.039 0.33-0.195 0.478-0.368 0.691-0.691 0.19-0.13 0.19-0.13 0.346-0.207 0 0.279-0.118 0.395-0.276 0.622-0.031 0.058-0.063 0.117-0.095 0.177-0.285 0.428-0.658 0.614-1.149 0.721-0.272 0.032-0.509 0.013-0.773-0.065-0.382-0.107-0.767-0.12-1.162-0.143 0-0.068 0-0.137 0-0.207 0.114-0.023 0.228-0.046 0.346-0.069-0.023-0.114-0.046-0.228-0.069-0.346 0.103 0.068 0.103 0.068 0.207 0.138 0.142 0.031 0.142 0.031 0.289 0.043 0.087 0.009 0.174 0.017 0.264 0.026 0.023-0.046 0.046-0.091 0.069-0.138-0.068 0-0.137 0-0.207 0 0-0.046 0-0.091 0-0.138-0.114-0.023-0.228-0.046-0.346-0.069 0-0.046 0-0.091 0-0.138-0.14-0.027-0.279-0.054-0.418-0.081-0.134-0.057-0.134-0.057-0.273-0.334-0.639 0-1.277 0-1.935 0 0 0.046 0 0.091 0 0.138 0.068 0 0.137 0 0.207 0 0.117 0.173 0.117 0.173 0.207 0.346-0.137 0-0.274 0-0.415 0-0.023-0.068-0.046-0.137-0.069-0.207-0.079 0.017-0.079 0.017-0.16 0.035-0.181 0.034-0.348 0.035-0.531 0.035-0.023-0.114-0.046-0.228-0.069-0.346-0.254-0.002-0.507 0-0.76 0.004-0.071-0.001-0.142-0.002-0.216-0.002-0.551 0.012-0.791 0.161-1.167 0.551-0.135 0.1-0.272 0.188-0.415 0.276 0.182 0 0.365 0 0.553 0 0.023-0.068 0.046-0.137 0.069-0.207 0.31 0 0.594 0.003 0.899 0.069 0 0.068 0 0.137 0 0.207 0.068 0 0.137 0 0.207 0-0.108 0.168-0.108 0.168-0.276 0.346-0.496 0.098-1.004 0.096-1.508 0.112-0.093 0.004-0.186 0.007-0.28 0.011-0.132 0.005-0.132 0.005-0.266 0.009-0.080 0.003-0.16 0.006-0.243 0.009-0.192-0.003-0.192-0.003-0.33-0.072 0.023-0.137 0.046-0.274 0.069-0.415-0.114-0.023-0.228-0.046-0.346-0.069-0.087-0.297-0.043-0.475 0.069-0.76-0.049-0.034-0.049-0.034-0.099-0.069-0.167-0.214-0.155-0.423-0.177-0.691-0.091 0.023-0.182 0.046-0.276 0.069 0.006-0.111 0.006-0.111 0.013-0.225-0.013-0.268-0.031-0.354-0.22-0.536-0.068-0.023-0.137-0.046-0.207-0.069-0.023-0.092-0.046-0.184-0.069-0.276-0.068-0.023-0.137-0.046-0.207-0.069 0-0.205 0-0.411 0-0.622zM16.449 12.855c-0.023 0.046-0.046 0.091-0.069 0.138 0.046 0 0.091 0 0.138 0-0.023-0.046-0.046-0.091-0.069-0.138z"></path>
<path d="M31.965 3.292c0.122 0 0.122 0 0.247 0 0.598 0.006 0.598 0.006 0.755 0.164-0.264 0.095-0.489 0.047-0.76 0 0.034 0.103 0.034 0.103 0.069 0.207 0.046 0 0.091 0 0.138 0 0 0.046 0 0.091 0 0.138-0.231 0.154-0.424 0.14-0.695 0.136-0.253 0.005-0.411 0.072-0.592 0.25-0.082 0.086-0.164 0.172-0.246 0.259-0.181 0.165-0.384 0.235-0.61 0.323-0.117 0.089-0.233 0.181-0.346 0.276-0.053 0.031-0.106 0.061-0.161 0.093-0.267 0.166-0.481 0.38-0.709 0.595-0.147 0.126-0.271 0.196-0.442 0.28-0.107 0.106-0.107 0.106-0.207 0.233-0.218 0.259-0.45 0.497-0.691 0.734-0.272 0.268-0.531 0.541-0.779 0.832-0.235 0.265-0.489 0.51-0.742 0.757 0.023 0.068 0.046 0.137 0.069 0.207-0.052 0.056-0.103 0.112-0.157 0.169-0.069 0.075-0.137 0.149-0.206 0.224-0.034 0.037-0.068 0.073-0.103 0.111-0.406 0.385-0.406 0.385-0.571 0.878-0.008 0.38-0.16 0.542-0.419 0.795-0.068 0.064-0.068 0.064-0.138 0.129-0.046 0.044-0.092 0.089-0.139 0.134-0.113 0.109-0.226 0.217-0.341 0.324-0.046-0.046-0.091-0.091-0.138-0.138 0.115-0.428 0.237-0.651 0.553-0.968 0.050-0.111 0.096-0.223 0.138-0.337 0.162-0.434 0.36-0.745 0.721-1.037 0.306-0.25 0.626-0.602 0.685-1.003 0.054-0.217 0.13-0.299 0.289-0.454 0.050-0.050 0.101-0.099 0.152-0.151 0.053-0.051 0.106-0.102 0.16-0.154 0.051-0.050 0.102-0.101 0.155-0.153 0.289-0.284 0.586-0.555 0.895-0.817 0.125-0.115 0.23-0.237 0.336-0.369 0.133-0.162 0.199-0.225 0.393-0.32 0.291-0.148 0.474-0.361 0.694-0.599 0.152-0.139 0.229-0.166 0.425-0.205 0.023-0.046 0.046-0.091 0.069-0.138 0.109-0.011 0.109-0.011 0.22-0.022 0.313-0.056 0.454-0.185 0.678-0.393 0.114-0.098 0.23-0.194 0.346-0.289 0.056-0.047 0.111-0.093 0.168-0.141 0.192-0.132 0.368-0.197 0.592-0.261 0-0.046 0-0.091 0-0.138-0.068 0.023-0.137 0.046-0.207 0.069-0.47 0.064-0.47 0.064-0.707 0.079-0.166 0.010-0.166 0.010-0.399 0.059-0.073 0.125-0.073 0.125-0.138 0.276-0.084 0.109-0.173 0.216-0.264 0.32-0.046 0.054-0.092 0.107-0.14 0.163-0.161 0.151-0.293 0.197-0.495 0.278-0.161 0.141-0.161 0.141-0.311 0.307-0.207 0.221-0.397 0.37-0.657 0.523-0.166 0.142-0.325 0.29-0.485 0.439-0.137 0.114-0.137 0.114-0.276 0.114-0.014 0.038-0.029 0.077-0.043 0.117-0.13 0.218-0.313 0.352-0.51 0.505-0.090 0.077-0.090 0.077-0.181 0.155-0.164 0.121-0.164 0.121-0.3 0.148-0.275 0.082-0.409 0.361-0.555 0.595-0.053 0.115-0.105 0.23-0.155 0.346-0.194 0.413-0.513 0.643-0.881 0.899 0-0.207 0-0.207 0.069-0.346 0.046 0 0.091 0 0.138 0 0.034-0.103 0.034-0.103 0.069-0.207 0.051-0.048 0.103-0.097 0.155-0.147 0.166-0.173 0.247-0.293 0.354-0.501 0.26-0.489 0.644-0.805 1.094-1.117 0.133-0.099 0.133-0.099 0.235-0.251 0.032-0.042 0.063-0.083 0.096-0.126 0.046 0 0.091 0 0.138 0 0.019-0.041 0.037-0.083 0.056-0.125 0.083-0.152 0.154-0.25 0.289-0.359 0.068 0 0.137 0 0.207 0 0-0.046 0-0.091 0-0.138 0.12-0.111 0.245-0.217 0.372-0.32 0.069-0.056 0.138-0.113 0.209-0.171 0.18-0.131 0.18-0.131 0.318-0.131 0-0.046 0-0.091 0-0.138 0.114-0.090 0.114-0.090 0.272-0.19 0.056-0.037 0.113-0.073 0.171-0.111 0.116-0.074 0.232-0.147 0.349-0.221 0.326-0.207 0.326-0.207 0.586-0.489 0.439-0.505 1.15-0.48 1.767-0.467z"></path>
<path d="M3.663 5.114c0.023 0 0.046 0 0.069 0 0.005 0.099 0.005 0.099 0.010 0.2 0.005 0.087 0.010 0.173 0.016 0.263 0.005 0.086 0.010 0.172 0.015 0.26 0.017 0.236 0.017 0.236 0.093 0.407 0.111 0.278 0.143 0.566 0.186 0.862 0.014 0.092 0.014 0.092 0.028 0.185 0.023 0.15 0.045 0.3 0.067 0.45 0.065 0.013 0.065 0.013 0.131 0.027 0.25 0.072 0.335 0.277 0.469 0.488 0.113 0.217 0.163 0.419 0.204 0.659 0.031 0.172 0.097 0.323 0.164 0.484 0 0.068 0 0.137 0 0.207 0.046 0 0.091 0 0.138 0 0.046 0.068 0.091 0.137 0.138 0.207 0.103 0.034 0.103 0.034 0.207 0.069 0.223 0.328 0.314 0.575 0.346 0.968 0.046 0 0.091 0 0.138 0 0.207 0.397 0.207 0.397 0.207 0.553 0.079 0.026 0.079 0.026 0.16 0.052 0.248 0.115 0.345 0.236 0.442 0.492 0.034 0.096 0.068 0.192 0.101 0.288 0.079 0.188 0.202 0.327 0.334 0.481 0 0.046 0 0.091 0 0.138 0.091 0.023 0.182 0.046 0.276 0.069 0 0.046 0 0.091 0 0.138 0.091 0.023 0.182 0.046 0.276 0.069 0 0.046 0 0.091 0 0.138 0.046 0 0.091 0 0.138 0 0.016 0.077 0.031 0.154 0.048 0.233 0.063 0.262 0.063 0.262 0.272 0.35 0.081 0.019 0.081 0.019 0.164 0.039 0 0.046 0 0.091 0 0.138 0.041 0.005 0.083 0.010 0.125 0.015 0.205 0.073 0.249 0.175 0.359 0.36 0.139 0.236 0.231 0.347 0.484 0.454 0.104 0.095 0.104 0.095 0.207 0.207 0.047 0.046 0.094 0.091 0.143 0.138 0.151 0.156 0.265 0.274 0.288 0.495-0.036 0.556-0.28 0.896-0.683 1.27-0.151 0.165-0.175 0.372-0.231 0.585-0.024 0.044-0.048 0.088-0.073 0.134-0.081 0.155-0.081 0.155-0.082 0.397-0.038 0.373-0.25 0.626-0.467 0.92-0.382 0.58-0.451 1.085-0.445 1.767 0 0.079 0.001 0.159 0.001 0.241 0.012 0.69 0.059 1.586 0.556 2.122 0.031 0.029 0.063 0.057 0.095 0.086-0.181 0-0.312-0.022-0.484-0.069-0.023-0.182-0.046-0.365-0.069-0.553-0.046 0-0.091 0-0.138 0-0.379-2.805-0.379-2.805 0.203-3.65 0.047-0.050 0.094-0.1 0.143-0.151 0.268-0.378 0.316-0.699 0.377-1.155 0.088-0.527 0.261-0.905 0.66-1.264 0.174-0.221 0.269-0.354 0.302-0.635-0.013-0.208-0.013-0.208-0.164-0.402-0.142-0.082-0.142-0.082-0.276-0.138 0-0.046 0-0.091 0-0.138-0.068 0-0.137 0-0.207 0-0.056-0.099-0.112-0.199-0.168-0.298-0.031-0.055-0.063-0.111-0.095-0.168-0.082-0.156-0.082-0.156-0.151-0.364-0.173-0.084-0.173-0.084-0.346-0.138 0-0.046 0-0.091 0-0.138-0.068 0-0.137 0-0.207 0-0.096-0.114-0.096-0.114-0.186-0.264-0.030-0.049-0.060-0.098-0.092-0.148-0.068-0.141-0.068-0.141-0.068-0.349-0.091 0-0.182 0-0.276 0-0.023-0.046-0.046-0.091-0.069-0.138-0.054-0.030-0.108-0.060-0.164-0.091-0.211-0.136-0.273-0.241-0.389-0.462-0.179-0.335-0.345-0.566-0.622-0.829-0.251-0.258-0.388-0.461-0.415-0.829-0.046 0-0.091 0-0.138 0-0.092-0.276-0.184-0.553-0.276-0.829-0.079-0.013-0.079-0.013-0.16-0.026-0.186-0.043-0.186-0.043-0.393-0.181-0.058-0.136-0.058-0.136-0.104-0.302-0.026-0.092-0.026-0.092-0.053-0.187-0.034-0.137-0.064-0.276-0.090-0.415-0.095-0.48-0.204-0.688-0.592-0.984-0.227-0.205-0.276-0.447-0.336-0.739-0.014-0.060-0.028-0.121-0.042-0.183-0.121-0.601-0.126-1.211-0.096-1.822 0.023-0.023 0.046-0.046 0.069-0.069z"></path>
<path d="M23.775 10.091c0.023 0 0.046 0 0.069 0 0.014 0.418 0.014 0.418 0 0.553-0.046 0.046-0.091 0.091-0.138 0.138-0.030 0.076-0.060 0.151-0.091 0.229-0.129 0.313-0.347 0.502-0.602 0.72-0.172 0.198-0.222 0.373-0.292 0.624-0.023 0.081-0.046 0.162-0.070 0.245-0.017 0.062-0.034 0.123-0.051 0.187 0.043-0.013 0.086-0.026 0.13-0.039 0.147-0.030 0.147-0.030 0.285 0.039 0.33-0.195 0.478-0.368 0.691-0.691 0.19-0.13 0.19-0.13 0.346-0.207 0 0.279-0.118 0.395-0.276 0.622-0.047 0.088-0.047 0.088-0.095 0.177-0.285 0.428-0.658 0.614-1.149 0.721-0.272 0.032-0.509 0.013-0.773-0.065-0.382-0.107-0.767-0.12-1.162-0.143 0-0.068 0-0.137 0-0.207 0.171-0.034 0.171-0.034 0.346-0.069-0.034-0.171-0.034-0.171-0.069-0.346 0.068 0.046 0.137 0.091 0.207 0.138 0.142 0.031 0.142 0.031 0.289 0.043 0.13 0.013 0.13 0.013 0.264 0.026 0.034-0.068 0.034-0.068 0.069-0.138-0.068 0-0.137 0-0.207 0 0-0.046 0-0.091 0-0.138-0.114-0.023-0.228-0.046-0.346-0.069-0.023-0.114-0.046-0.228-0.069-0.346-0.063-0.020-0.125-0.040-0.19-0.060-0.225-0.078-0.225-0.078-0.357-0.15-0.165-0.075-0.284-0.085-0.464-0.089-0.060-0.002-0.12-0.004-0.183-0.006s-0.125-0.003-0.189-0.005c-0.124-0.003-0.248-0.007-0.372-0.011-0.055-0.001-0.109-0.003-0.166-0.004-0.169-0.022-0.284-0.074-0.43-0.158 1.82-0.038 1.82-0.038 2.557 0.553 0.056 0.054 0.111 0.108 0.168 0.164 0.275 0.174 0.552 0.134 0.868 0.112 0.024-0.050 0.049-0.1 0.074-0.152 0.197-0.386 0.373-0.667 0.714-0.933 0.386-0.315 0.511-0.81 0.663-1.265z"></path>
<path d="M27.991 21.564c0.138 0.069 0.138 0.069 0.181 0.191 0.028 0.164 0.035 0.316 0.036 0.482 0 0.062 0 0.125 0 0.189s-0.001 0.129-0.001 0.196c0 0.064 0.001 0.128 0.001 0.194-0.001 0.985-0.001 0.985-0.264 1.31-0.037 0.046-0.074 0.093-0.112 0.14-0.107 0.121-0.219 0.232-0.337 0.343-0.211 0.201-0.289 0.418-0.402 0.687-0.407 0.584-0.996 1.138-1.59 1.521-0.081 0.064-0.16 0.13-0.238 0.199-0.041 0.035-0.081 0.070-0.123 0.106-0.083 0.074-0.164 0.149-0.245 0.226-0.282 0.263-0.454 0.325-0.846 0.367-0.12 0.070-0.24 0.14-0.358 0.214-0.141 0.070-0.25 0.085-0.407 0.097-0.275 0.012-0.275 0.012-0.458 0.177-0.357 0.209-0.723 0.156-1.127 0.134 0-0.023 0-0.046 0-0.069 0.048-0.008 0.097-0.017 0.146-0.025 0.063-0.012 0.126-0.023 0.191-0.035 0.063-0.011 0.125-0.022 0.19-0.034 0.176-0.032 0.176-0.032 0.303-0.182 0.137-0.027 0.276-0.051 0.415-0.069-0.013-0.090-0.026-0.18-0.039-0.272-0.022-0.153-0.022-0.153-0.030-0.281 0.134-0.134 0.373-0.113 0.553-0.138 0.068-0.034 0.068-0.034 0.138-0.069 0.061 0.007 0.123 0.014 0.186 0.022 0.328-0.031 0.486-0.21 0.713-0.436-0.124 0.263-0.256 0.435-0.484 0.622-0.16 0.028-0.322 0.051-0.484 0.069-0.165 0.099-0.165 0.099-0.276 0.207 0.391 0.020 0.564 0.004 0.898-0.207 0.229-0.013 0.229-0.013 0.415 0 0.046-0.091 0.091-0.182 0.138-0.276 0.046 0 0.091 0 0.138 0 0.006-0.041 0.011-0.083 0.017-0.125 0.068-0.199 0.15-0.25 0.328-0.359 0.115-0.047 0.23-0.093 0.346-0.138 0.046-0.046 0.091-0.091 0.138-0.138 0.068 0 0.137 0 0.207 0 0.019-0.041 0.038-0.082 0.058-0.124 0.181-0.343 0.454-0.609 0.755-0.848 0.223-0.185 0.293-0.332 0.363-0.618 0.097-0.263 0.167-0.445 0.372-0.639 0.684-0.716 0.59-1.68 0.596-2.609z"></path>
<path d="M6.359 3.11c0 0.046 0 0.091 0 0.138 0.073 0.013 0.145 0.026 0.22 0.039 0.282 0.079 0.393 0.23 0.55 0.469 0.059 0.114 0.059 0.114 0.059 0.253 0.081 0.017 0.162 0.034 0.246 0.052 0.3 0.074 0.529 0.199 0.791 0.363 0 0.068 0 0.137 0 0.207 0.046 0 0.091 0 0.138 0 0.041 0.098 0.041 0.098 0.082 0.199 0.146 0.252 0.208 0.26 0.471 0.354 0.194 0.181 0.194 0.181 0.346 0.346-0.023 0.068-0.046 0.137-0.069 0.207-0.081-0.066-0.081-0.066-0.164-0.134-0.167-0.141-0.167-0.141-0.32-0.212 0-0.046 0-0.091 0-0.138-0.091-0.023-0.182-0.046-0.276-0.069 0-0.046 0-0.091 0-0.138-0.046 0-0.091 0-0.138 0-0.023-0.114-0.046-0.228-0.069-0.346-0.064-0.019-0.128-0.037-0.194-0.056-0.22-0.082-0.22-0.082-0.324-0.19-0.154-0.147-0.312-0.146-0.518-0.168 0 0.068 0 0.137 0 0.207-0.282-0.045-0.555-0.145-0.76-0.346-0.099-0.269-0.138-0.543-0.138-0.829-1.218-0.124-1.218-0.124-2.419 0-0.128 0.134-0.128 0.134-0.207 0.276 0-0.046 0-0.091 0-0.138-0.325 0.146-0.325 0.146-0.553 0.415-0.027 0.161-0.051 0.322-0.069 0.484 0.044 0.019 0.088 0.037 0.134 0.056 0.143 0.082 0.143 0.082 0.212 0.289 0.046 0 0.091 0 0.138 0 0 0.091 0 0.182 0 0.276-0.068-0.023-0.137-0.046-0.207-0.069 0-0.068 0-0.137 0-0.207-0.044-0.017-0.088-0.034-0.134-0.052-0.143-0.086-0.143-0.086-0.181-0.229-0.015-0.066-0.015-0.066-0.030-0.134-0.068-0.023-0.137-0.046-0.207-0.069-0.012-0.31-0.020-0.557 0.138-0.829 0.321-0.237 0.609-0.283 1-0.298 0.11-0.004 0.11-0.004 0.223-0.009 0.115-0.004 0.115-0.004 0.232-0.008 0.075-0.003 0.15-0.006 0.227-0.009 1.338-0.051 1.338-0.051 1.773 0.048z"></path>
<path d="M10.505 16.311c0.046 0.046 0.091 0.091 0.138 0.138-0.019 0.116-0.043 0.231-0.069 0.346 0.006 0.065 0.011 0.129 0.017 0.196-0.022 0.29-0.128 0.385-0.328 0.59-0.058 0.060-0.115 0.121-0.175 0.183-0.045 0.045-0.090 0.090-0.136 0.137-0.023-0.046-0.046-0.091-0.069-0.138 0.063-0.189 0.145-0.359 0.238-0.536 0.113-0.235 0.193-0.47 0.271-0.718 0.045-0.128 0.045-0.128 0.114-0.197zM9.814 17.901c0 0.068 0 0.137 0 0.207-0.138 0.117-0.138 0.117-0.276 0.207 0.080-0.171 0.142-0.28 0.276-0.415zM9.469 18.315c0.023 0 0.046 0 0.069 0-0.001 0.063-0.001 0.063-0.001 0.127-0.009 1.244 0.016 2.485 0.050 3.728 0.006 0.213 0.011 0.426 0.016 0.639 0.003 0.121 0.007 0.241 0.010 0.362 0.001 0.061 0.002 0.122 0.004 0.185 0.001 0.049 0.003 0.098 0.004 0.149-0.018 0.159-0.074 0.27-0.153 0.409-0.183-0.571-0.254-1.118-0.289-1.715-0.006-0.081-0.011-0.162-0.017-0.245-0.037-0.566-0.066-1.136-0.039-1.703 0.023-0.023 0.046-0.046 0.069-0.069 0.026-0.184 0.049-0.368 0.069-0.553 0.060-0.544 0.060-0.544 0.138-0.622 0.016-0.116 0.029-0.233 0.039-0.35 0.006-0.064 0.012-0.127 0.018-0.192 0.004-0.049 0.008-0.098 0.013-0.149z"></path>
<path d="M32.346 7.050c0.125 0.402 0.092 0.873-0.062 1.263-0.157 0.267-0.353 0.468-0.577 0.68-0.232 0.222-0.314 0.353-0.328 0.682-0.056 0.164-0.056 0.164-0.138 0.346-0.016 0.040-0.032 0.081-0.049 0.123-0.134 0.309-0.296 0.507-0.543 0.737-0.213 0.201-0.334 0.331-0.397 0.618-0.104 0.406-0.425 0.627-0.729 0.889-0.309 0.267-0.571 0.574-0.839 0.882-0.105 0.118-0.21 0.236-0.315 0.354-0.079 0.089-0.158 0.179-0.238 0.268-0.046-0.068-0.091-0.137-0.138-0.207 0.123-0.123 0.247-0.246 0.372-0.367 0.132-0.136 0.249-0.267 0.367-0.415 0.053-0.061 0.105-0.123 0.16-0.186 0.046 0 0.091 0 0.138 0 0.019-0.048 0.037-0.097 0.056-0.147 0.027-0.066 0.054-0.131 0.082-0.199 0.030-0.074 0.060-0.148 0.091-0.225 0.117-0.19 0.117-0.19 0.294-0.233 0.056-0.009 0.111-0.017 0.168-0.026 0.086-0.131 0.086-0.131 0.138-0.276 0.068-0.068 0.068-0.068 0.138-0.138 0.111-0.246 0.21-0.49 0.302-0.743 0.128-0.257 0.218-0.291 0.458-0.432 0.212-0.314 0.325-0.601 0.415-0.968 0.046 0 0.091 0 0.138 0 0.023-0.182 0.046-0.365 0.069-0.553 0.068-0.023 0.137-0.046 0.207-0.069 0-0.046 0-0.091 0-0.138 0.091-0.094 0.183-0.186 0.276-0.276 0.214-0.233 0.245-0.428 0.281-0.739 0.017-0.146 0.038-0.292 0.065-0.436 0.046-0.023 0.091-0.046 0.138-0.069z"></path>
<path d="M10.505 15.758c0.163 0.506-0.172 1.156-0.384 1.616-0.033 0.060-0.066 0.12-0.099 0.181-0.033 0.070-0.066 0.14-0.099 0.212-0.108 0.203-0.108 0.203-0.255 0.359-0.167 0.245-0.171 0.444-0.187 0.735-0.012 0.146-0.012 0.146-0.081 0.215-0.026 0.184-0.049 0.368-0.069 0.553-0.060 0.544-0.060 0.544-0.138 0.622-0.037 0.711 0.021 1.425 0.069 2.134 0.007 0.102 0.013 0.204 0.020 0.306 0.016 0.246 0.032 0.493 0.049 0.739-0.103 0.034-0.103 0.034-0.207 0.069-0.177-1.398-0.298-2.693-0.086-4.091 0.011-0.073 0.022-0.145 0.033-0.22 0.072-0.433 0.186-0.766 0.399-1.149 0.034-0.109 0.034-0.109 0.069-0.22 0.079-0.223 0.197-0.356 0.346-0.54 0.155-0.294 0.215-0.507 0.233-0.838 0.017-0.246 0.042-0.378 0.22-0.553 0.056-0.043 0.111-0.086 0.168-0.13z"></path>
<path d="M8.847 23.43c0.046 0 0.091 0 0.138 0 0.023 0.228 0.046 0.456 0.069 0.691 0.091 0.023 0.182 0.046 0.276 0.069-0.004 0.073-0.009 0.145-0.013 0.22 0.014 0.277 0.050 0.395 0.22 0.609 0.068 0.023 0.137 0.046 0.207 0.069 0.111 0.153 0.111 0.153 0.22 0.341 0.037 0.062 0.073 0.124 0.111 0.188 0.083 0.162 0.083 0.162 0.083 0.3 0.103 0.034 0.103 0.034 0.207 0.069 0 0.046 0 0.091 0 0.138 0.046 0 0.091 0 0.138 0 0 0.046 0 0.091 0 0.138 0.046 0 0.091 0 0.138 0 0 0.046 0 0.091 0 0.138 0.091 0.023 0.182 0.046 0.276 0.069 0 0.046 0 0.091 0 0.138 0.058 0.019 0.117 0.037 0.177 0.056 0.761 0.263 0.761 0.263 0.998 0.566 0 0.068 0 0.137 0 0.207 0.079 0.013 0.079 0.013 0.16 0.026 0.186 0.043 0.186 0.043 0.393 0.181 0.205 0.032 0.205 0.032 0.428 0.043 0.075 0.005 0.15 0.010 0.228 0.016 0.057 0.003 0.115 0.007 0.174 0.010 0 0.046 0 0.091 0 0.138 0.376 0.068 0.376 0.068 0.76 0.138 0 0.046 0 0.091 0 0.138 0.054 0.019 0.108 0.037 0.164 0.056 0.181 0.082 0.181 0.082 0.32 0.289-0.114 0-0.228 0-0.346 0 0-0.046 0-0.091 0-0.138-0.046 0-0.091 0-0.138 0 0-0.046 0-0.091 0-0.138-0.064 0.003-0.128 0.006-0.194 0.009-0.22-0.009-0.22-0.009-0.428-0.147-0.189-0.042-0.375-0.080-0.566-0.112-0.052-0.009-0.104-0.019-0.157-0.028-0.128-0.023-0.255-0.045-0.383-0.067 0-0.068 0-0.137 0-0.207-0.16-0.023-0.319-0.046-0.484-0.069-0.003-0.043-0.006-0.086-0.009-0.13-0.020-0.048-0.040-0.097-0.060-0.147-0.202-0.081-0.202-0.081-0.415-0.138-0.046-0.046-0.091-0.091-0.138-0.138-0.114-0.048-0.23-0.094-0.346-0.138-0.105-0.042-0.211-0.085-0.315-0.13-0.051-0.021-0.103-0.042-0.156-0.064-0.319-0.174-0.466-0.41-0.622-0.731-0.133-0.255-0.246-0.434-0.475-0.609-0.272-0.21-0.342-0.425-0.436-0.747-0.019-0.051-0.038-0.102-0.058-0.154-0.133-0.356-0.17-0.642-0.149-1.021z"></path>
<path d="M27.577 14.099c0.091 0.023 0.182 0.046 0.276 0.069-0.064 0.061-0.128 0.123-0.194 0.186-0.179 0.179-0.299 0.355-0.428 0.575-0.075 0.078-0.149 0.156-0.225 0.233-0.17 0.194-0.19 0.228-0.194 0.501 0.070 0.223 0.15 0.386 0.281 0.579 0.134 0.225 0.163 0.414 0.181 0.674 0.005 0.068 0.010 0.136 0.016 0.206 0.003 0.052 0.007 0.103 0.010 0.157 0.046 0 0.091 0 0.138 0 0.346 0.378 0.346 0.378 0.346 0.553 0.103 0.034 0.103 0.034 0.207 0.069 0.339 0.576 0.316 1.19 0.169 1.823-0.010 0.037-0.020 0.074-0.031 0.112-0.046 0-0.091 0-0.138 0-0.002-0.041-0.003-0.082-0.005-0.124-0.008-0.185-0.017-0.37-0.025-0.555-0.003-0.064-0.005-0.128-0.008-0.195-0.003-0.062-0.006-0.123-0.009-0.187-0.003-0.057-0.005-0.114-0.008-0.172-0.010-0.163-0.010-0.163-0.083-0.358-0.046 0-0.091 0-0.138 0-0.046-0.182-0.091-0.365-0.138-0.553-0.046 0-0.091 0-0.138 0 0-0.046 0-0.091 0-0.138-0.046 0-0.091 0-0.138 0-0.046-0.228-0.091-0.456-0.138-0.691-0.068 0-0.137 0-0.207 0-0.023-0.228-0.046-0.456-0.069-0.691-0.046 0-0.091 0-0.138 0-0.351-0.589-0.351-0.589-0.346-0.76 0.16-0.19 0.16-0.19 0.346-0.346 0.046 0 0.091 0 0.138 0 0.017-0.050 0.034-0.1 0.051-0.152 0.097-0.215 0.212-0.354 0.372-0.526 0.050-0.055 0.1-0.109 0.152-0.165 0.038-0.041 0.077-0.082 0.116-0.124z"></path>
<path d="M17.106 11.7c0.194 0.006 0.389 0.008 0.583 0.010 0.123 0.002 0.247 0.004 0.37 0.006 0.087 0.002 0.087 0.002 0.177 0.003 0.408 0.013 0.408 0.013 0.563 0.168-0.091 0-0.182 0-0.276 0 0 0.046 0 0.091 0 0.138 0.068 0 0.137 0 0.207 0 0.117 0.173 0.117 0.173 0.207 0.346-0.137 0-0.274 0-0.415 0-0.034-0.103-0.034-0.103-0.069-0.207-0.053 0.011-0.105 0.023-0.16 0.035-0.181 0.034-0.348 0.035-0.531 0.035-0.034-0.171-0.034-0.171-0.069-0.346-0.254-0.002-0.507 0-0.76 0.004-0.071-0.001-0.142-0.002-0.216-0.002-0.551 0.012-0.791 0.161-1.167 0.551-0.135 0.1-0.272 0.188-0.415 0.276 0.182 0 0.365 0 0.553 0 0.023-0.068 0.046-0.137 0.069-0.207 0.114 0 0.228 0 0.346 0 0.023 0.046 0.046 0.091 0.069 0.138-0.156 0.182-0.255 0.236-0.492 0.26-0.055 0.006-0.109 0.012-0.165 0.018s-0.113 0.010-0.172 0.016c-0.057 0.006-0.113 0.012-0.172 0.019-0.421 0.043-0.421 0.043-0.658-0.036 0.046-0.114 0.091-0.228 0.138-0.346 0.16 0 0.319 0 0.484 0 0-0.046 0-0.091 0-0.138 0.042-0.017 0.084-0.034 0.127-0.051 0.176-0.103 0.218-0.195 0.32-0.369 0.377-0.445 0.989-0.337 1.522-0.32z"></path>
<path d="M28.406 12.51c0.068 0.023 0.137 0.046 0.207 0.069-0.040 0.038-0.080 0.075-0.122 0.114-0.054 0.052-0.108 0.104-0.164 0.158-0.079 0.076-0.079 0.076-0.16 0.153-0.145 0.162-0.254 0.31-0.37 0.492-0.227 0.349-0.498 0.639-0.788 0.936-0.098 0.101-0.195 0.202-0.292 0.304-0.043 0.044-0.085 0.088-0.129 0.133-0.25 0.273-0.416 0.539-0.533 0.89-0.023 0.068-0.046 0.137-0.069 0.207-0.046-0.046-0.091-0.091-0.138-0.138-0.046 0.046-0.091 0.091-0.138 0.138-0.047-0.243-0.054-0.449 0-0.691 0.201-0.266 0.441-0.474 0.691-0.691 0.172-0.168 0.334-0.331 0.484-0.518 0.388-0.485 0.388-0.485 0.644-0.575 0.038-0.004 0.077-0.009 0.117-0.013 0.023-0.114 0.046-0.228 0.069-0.346 0.046 0 0.091 0 0.138 0 0.123-0.121 0.123-0.121 0.246-0.272 0.043-0.051 0.086-0.101 0.13-0.153 0.036-0.042 0.071-0.084 0.108-0.128 0.023-0.023 0.046-0.046 0.069-0.069z"></path>
<path d="M25.158 26.678c0.068 0.023 0.137 0.046 0.207 0.069-0.114 0.046-0.228 0.091-0.346 0.138 0.046-0.068 0.091-0.137 0.138-0.207zM24.397 26.747c0 0.236-0.021 0.261-0.177 0.423-0.226 0.217-0.41 0.239-0.721 0.268-0.165 0.099-0.165 0.099-0.276 0.207 0.391 0.020 0.564 0.004 0.898-0.207 0.229-0.013 0.229-0.013 0.415 0 0.046-0.091 0.091-0.182 0.138-0.276 0.046 0 0.091 0 0.138 0 0.023-0.091 0.046-0.182 0.069-0.276 0.046 0 0.091 0 0.138 0-0.044 0.369-0.198 0.505-0.475 0.735-0.195 0.126-0.334 0.109-0.561 0.095-0.066 0.044-0.131 0.088-0.199 0.134-0.238 0.157-0.363 0.168-0.636 0.188-0.153 0.017-0.153 0.017-0.318 0.167-0.357 0.209-0.723 0.156-1.127 0.134 0-0.023 0-0.046 0-0.069 0.048-0.008 0.097-0.017 0.146-0.025 0.063-0.012 0.126-0.023 0.191-0.035 0.094-0.017 0.094-0.017 0.19-0.034 0.176-0.032 0.176-0.032 0.303-0.182 0.137-0.027 0.276-0.051 0.415-0.069-0.013-0.090-0.026-0.18-0.039-0.272-0.022-0.153-0.022-0.153-0.030-0.281 0.134-0.134 0.373-0.113 0.553-0.138 0.046-0.023 0.091-0.046 0.138-0.069 0.063 0.007 0.125 0.014 0.19 0.022 0.33-0.032 0.425-0.191 0.639-0.436z"></path>
<path d="M10.091 16.657c0.023 0.046 0.046 0.091 0.069 0.138-0.062 0.157-0.062 0.157-0.155 0.341-0.030 0.061-0.061 0.121-0.092 0.183-0.098 0.167-0.098 0.167-0.207 0.271-0.132 0.138-0.159 0.265-0.207 0.449-0.059 0.225-0.106 0.356-0.238 0.553-0.37 1.452-0.323 2.884-0.138 4.354-0.103 0.034-0.103 0.034-0.207 0.069-0.057-0.469-0.091-0.936-0.112-1.408-0.004-0.067-0.007-0.133-0.011-0.202-0.018-0.402-0.007-0.788 0.039-1.188 0.016-0.181 0.014-0.355 0.007-0.536-0.004-0.314 0.081-0.527 0.216-0.812 0.023-0.161 0.047-0.322 0.069-0.484 0.046-0.023 0.091-0.046 0.138-0.069 0.020-0.138 0.035-0.276 0.048-0.415 0.065-0.478 0.231-0.771 0.575-1.106 0.068-0.046 0.137-0.091 0.207-0.138z"></path>
<path d="M9.054 16.864c0.103 0.267 0.020 0.428-0.069 0.691-0.010 0.158-0.015 0.317-0.017 0.475-0.023 0.41-0.092 0.618-0.363 0.921-0.169 0.204-0.227 0.428-0.31 0.678-0.024 0.043-0.048 0.086-0.073 0.13-0.137 0.306-0.091 0.667-0.091 0.997 0 0.081 0 0.161 0 0.244 0.009 0.695 0.051 1.595 0.553 2.136 0.031 0.029 0.063 0.057 0.095 0.086-0.181 0-0.312-0.022-0.484-0.069-0.023-0.182-0.046-0.365-0.069-0.553-0.046 0-0.091 0-0.138 0-0.379-2.805-0.379-2.805 0.203-3.65 0.047-0.050 0.094-0.1 0.143-0.151 0.268-0.378 0.321-0.705 0.38-1.163 0.044-0.28 0.13-0.513 0.242-0.773z"></path>
<path d="M18.738 11.646c0.268 0.034 0.529 0.044 0.798 0.051 1.112 0.029 1.112 0.029 1.544 0.398 0.034 0.103 0.034 0.103 0.069 0.207-0.133-0.026-0.133-0.026-0.268-0.052-0.050-0.010-0.099-0.019-0.151-0.029-0.176-0.075-0.196-0.164-0.273-0.334-0.047 0-0.094 0.001-0.143 0.001-0.213 0.001-0.426 0.002-0.639 0.003-0.111 0.001-0.111 0.001-0.224 0.002-0.071 0-0.142 0-0.215 0.001-0.066 0-0.131 0.001-0.199 0.001-0.169-0.008-0.169-0.008-0.377-0.077-0.39-0.024-0.78-0.030-1.17-0.036-0.129-0.002-0.259-0.005-0.388-0.010-0.728-0.056-0.728-0.056-1.392 0.169-0.129 0.145-0.129 0.145-0.215 0.303-0.084 0.126-0.084 0.126-0.233 0.178-0.042 0.006-0.084 0.011-0.127 0.017 0 0.046 0 0.091 0 0.138-0.205 0-0.411 0-0.622 0-0.023-0.046-0.046-0.091-0.069-0.138 0.071 0.007 0.143 0.014 0.216 0.022 0.337-0.027 0.447-0.131 0.682-0.367 0.069-0.092 0.139-0.184 0.207-0.276 0.046 0 0.091 0 0.138 0 0-0.046 0-0.091 0-0.138 0.997-0.231 2.044-0.196 3.049-0.034z"></path>
<path d="M29.374 4.907c0.034 0.068 0.034 0.068 0.069 0.138-0.078 0.089-0.155 0.179-0.233 0.268-0.043 0.050-0.087 0.099-0.131 0.151-0.083 0.093-0.169 0.184-0.258 0.273-0.068 0-0.137 0-0.207 0 0 0.046 0 0.091 0 0.138-0.053 0.030-0.105 0.060-0.16 0.091-0.215 0.135-0.265 0.245-0.393 0.462-0.154 0.168-0.319 0.326-0.484 0.484-0.203 0.198-0.394 0.399-0.579 0.613-0.233 0.269-0.479 0.521-0.734 0.769-0.046-0.023-0.091-0.046-0.138-0.069 0.035-0.286 0.108-0.419 0.313-0.619 0.050-0.050 0.101-0.099 0.152-0.151 0.053-0.051 0.106-0.102 0.16-0.154 0.051-0.050 0.102-0.101 0.155-0.153 0.289-0.284 0.586-0.555 0.895-0.817 0.125-0.115 0.23-0.237 0.336-0.369 0.133-0.162 0.199-0.225 0.393-0.32 0.343-0.175 0.58-0.457 0.842-0.734z"></path>
<path d="M16.311 12.51c0.194 0.017 0.194 0.017 0.346 0.069 0 0.068 0 0.137 0 0.207 0.068 0 0.137 0 0.207 0-0.108 0.168-0.108 0.168-0.276 0.346-0.496 0.098-1.004 0.096-1.508 0.112-0.093 0.004-0.186 0.007-0.28 0.011-0.088 0.003-0.176 0.006-0.266 0.009-0.12 0.004-0.12 0.004-0.243 0.009-0.192-0.003-0.192-0.003-0.33-0.072 0-0.091 0-0.182 0-0.276 0.095 0.002 0.095 0.002 0.193 0.005 1.154 0.046 1.154 0.046 2.157-0.42zM16.449 12.855c-0.023 0.046-0.046 0.091-0.069 0.138 0.046 0 0.091 0 0.138 0-0.023-0.046-0.046-0.091-0.069-0.138z"></path>
<path d="M31.724 3.456c0 0.046 0 0.091 0 0.138-0.137 0.092-0.137 0.092-0.32 0.194-0.291 0.169-0.533 0.346-0.786 0.566-0.406 0.339-0.406 0.339-0.721 0.367-0.058-0.007-0.117-0.014-0.177-0.022 0.104-0.216 0.216-0.421 0.346-0.622 0.046-0.071 0.091-0.143 0.138-0.216 0.357-0.419 1.009-0.435 1.521-0.406z"></path>
<path d="M23.983 11.888c0.046 0.046 0.091 0.091 0.138 0.138-0.030 0.039-0.060 0.077-0.091 0.117-0.119 0.157-0.119 0.157-0.212 0.328-0.13 0.205-0.282 0.356-0.458 0.523-0.032 0.035-0.064 0.070-0.096 0.107-0.265 0.241-0.667 0.32-1.018 0.33-0.268-0.022-0.268-0.022-0.488-0.086-0.382-0.107-0.767-0.12-1.162-0.143 0-0.068 0-0.137 0-0.207 0.26-0.087 0.421-0.047 0.691-0.004 0.552 0.081 1.184 0.172 1.728 0.004 0.079-0.123 0.079-0.123 0.138-0.276 0.112-0.118 0.228-0.233 0.346-0.346 0.061-0.061 0.123-0.123 0.186-0.186 0.099-0.099 0.199-0.199 0.298-0.298z"></path>
<path d="M4.354 3.594c-0.034 0.038-0.067 0.076-0.102 0.114-0.195 0.3-0.138 0.646-0.105 0.991 0.033 0.138 0.069 0.274 0.108 0.41 0.133 0.476 0.162 1.020-0.042 1.482-0.022 0.037-0.043 0.074-0.066 0.112-0.005-0.132-0.005-0.132-0.010-0.267-0.005-0.115-0.010-0.231-0.016-0.346-0.002-0.058-0.004-0.116-0.006-0.176-0.003-0.056-0.005-0.111-0.008-0.169-0.002-0.051-0.004-0.103-0.007-0.156-0.012-0.146-0.012-0.146-0.16-0.268-0.057-0.189-0.101-0.38-0.147-0.572-0.050-0.191-0.050-0.191-0.172-0.335-0.096-0.13-0.096-0.13-0.083-0.38 0.056-0.233 0.056-0.233 0.194-0.372 0.204-0.102 0.397-0.073 0.622-0.069zM3.87 4.562c0.069 0.138 0.069 0.138 0.069 0.138z"></path>
<path d="M9.469 19.076c0.065 0.222 0.080 0.425 0.083 0.657 0.001 0.076 0.003 0.152 0.004 0.231 0.001 0.082 0.002 0.163 0.004 0.248s0.003 0.168 0.004 0.255c0.005 0.268 0.009 0.537 0.013 0.805 0.003 0.182 0.006 0.364 0.009 0.546 0.007 0.446 0.014 0.892 0.021 1.338-0.138-0.138-0.138-0.138-0.152-0.288 0.002-0.056 0.003-0.112 0.005-0.17 0.002-0.085 0.002-0.085 0.004-0.171 0.002-0.043 0.003-0.087 0.005-0.131-0.046 0-0.091 0-0.138 0-0.141-1.122-0.108-2.214 0.138-3.317z"></path>
<path d="M3.68 3.166c0.087 0.002 0.175 0.004 0.265 0.006 0.067 0.002 0.133 0.005 0.202 0.007-0.043 0.020-0.086 0.040-0.131 0.060-0.171 0.092-0.247 0.195-0.353 0.355 0-0.046 0-0.091 0-0.138-0.325 0.146-0.325 0.146-0.553 0.415-0.027 0.161-0.051 0.322-0.069 0.484 0.044 0.019 0.088 0.037 0.134 0.056 0.143 0.082 0.143 0.082 0.212 0.289 0.046 0 0.091 0 0.138 0 0 0.091 0 0.182 0 0.276-0.068-0.023-0.137-0.046-0.207-0.069 0-0.068 0-0.137 0-0.207-0.044-0.017-0.088-0.034-0.134-0.052-0.143-0.086-0.143-0.086-0.181-0.229-0.015-0.066-0.015-0.066-0.030-0.134-0.068-0.023-0.137-0.046-0.207-0.069-0.012-0.311-0.015-0.554 0.138-0.829 0.241-0.242 0.446-0.23 0.778-0.22z"></path>
<path d="M4.708 3.555c0.232 0.045 0.448 0.041 0.683 0.035 0.137 0.004 0.137 0.004 0.276 0.073 0 0.046 0 0.091 0 0.138-0.19 0.112-0.19 0.112-0.415 0.207-0.164-0.056-0.164-0.056-0.276-0.138-0.023 0.046-0.046 0.091-0.069 0.138-0.091-0.046-0.182-0.091-0.276-0.138-0.266 0.222-0.354 0.42-0.415 0.76 0.055 0.151 0.055 0.151 0.138 0.276 0 0.091 0 0.182 0 0.276-0.046 0-0.091 0-0.138 0-0.153-0.422-0.212-0.868-0.138-1.313 0.175-0.22 0.333-0.377 0.631-0.315z"></path>
<path d="M31.032 3.317c0.297-0.004 0.593-0.006 0.89-0.009 0.085-0.001 0.169-0.002 0.256-0.003 0.081 0 0.161-0.001 0.244-0.001 0.075-0.001 0.149-0.001 0.226-0.002 0.181 0.016 0.181 0.016 0.319 0.154-0.264 0.095-0.489 0.047-0.76 0 0.023 0.068 0.046 0.137 0.069 0.207 0.046 0 0.091 0 0.138 0 0 0.046 0 0.091 0 0.138-0.231 0.14-0.406 0.153-0.674 0.147-0.068-0.001-0.136-0.002-0.206-0.004-0.078-0.002-0.078-0.002-0.157-0.005 0.19-0.268 0.19-0.268 0.346-0.346 0-0.046 0-0.091 0-0.138-0.068 0.023-0.137 0.046-0.207 0.069-0.131 0.015-0.262 0.028-0.393 0.039-0.069 0.006-0.137 0.012-0.208 0.018-0.052 0.004-0.105 0.008-0.159 0.013 0.091-0.046 0.182-0.091 0.276-0.138 0-0.046 0-0.091 0-0.138z"></path>
<path d="M6.289 3.387c0.381 0.034 0.381 0.034 0.544 0.203 0.078 0.143 0.078 0.143 0.078 0.281 0.068 0.023 0.137 0.046 0.207 0.069 0.026 0.091 0.049 0.184 0.069 0.276 0.046 0.023 0.091 0.046 0.138 0.069-0.046 0-0.091 0-0.138 0 0 0.068 0 0.137 0 0.207-0.282-0.045-0.555-0.145-0.76-0.346-0.089-0.244-0.138-0.5-0.138-0.76z"></path>
<path d="M26.125 8.294c0.023 0.046 0.046 0.091 0.069 0.138-0.21 0.289-0.424 0.566-0.665 0.829-0.267 0.3-0.439 0.618-0.566 0.998-0.1 0.217-0.229 0.345-0.401 0.51-0.056 0.055-0.113 0.109-0.171 0.165-0.043 0.041-0.087 0.082-0.131 0.124-0.034-0.103-0.034-0.103-0.069-0.207 0.063-0.054 0.125-0.108 0.19-0.164 0.233-0.231 0.322-0.468 0.433-0.772 0.166-0.415 0.432-0.68 0.774-0.956 0.213-0.194 0.374-0.429 0.538-0.665z"></path>
<path d="M9.952 15.482c0.068 0.034 0.068 0.034 0.138 0.069-0.023 0.228-0.046 0.456-0.069 0.691-0.023 0-0.046 0-0.069 0 0-0.251 0-0.502 0-0.76zM9.676 16.242c0.091 0.023 0.182 0.046 0.276 0.069-0.065 0.088-0.129 0.176-0.194 0.264-0.054 0.073-0.054 0.073-0.109 0.148-0.111 0.141-0.111 0.141-0.224 0.248-0.154 0.164-0.177 0.371-0.233 0.584-0.024 0.044-0.048 0.088-0.073 0.134-0.102 0.224-0.11 0.451-0.134 0.695-0.023 0-0.046 0-0.069 0-0.029-0.618-0.045-1.231 0.38-1.719 0.086-0.073 0.086-0.073 0.173-0.147 0.071-0.091 0.141-0.182 0.207-0.276z"></path>
<path d="M17.279 11.525c0.064-0.001 0.127-0.001 0.193-0.002 0.060 0 0.121 0.001 0.183 0.001 0.054 0 0.108 0 0.164 0 0.168 0.020 0.282 0.072 0.428 0.156-0.070 0.003-0.070 0.003-0.141 0.005-0.215 0.008-0.43 0.017-0.645 0.025-0.073 0.003-0.147 0.005-0.222 0.008-0.217 0.009-0.434 0.019-0.65 0.031-0.099 0.004-0.099 0.004-0.199 0.008-0.354 0.018-0.354 0.018-0.655 0.186-0.052 0.075-0.052 0.075-0.104 0.151-0.19 0.268-0.19 0.268-0.368 0.328-0.062 0.009-0.062 0.009-0.125 0.017 0 0.046 0 0.091 0 0.138-0.205 0-0.411 0-0.622 0-0.023-0.046-0.046-0.091-0.069-0.138 0.071 0.007 0.143 0.014 0.216 0.022 0.337-0.027 0.447-0.131 0.682-0.367 0.069-0.092 0.139-0.184 0.207-0.276 0.046 0 0.091 0 0.138 0 0-0.046 0-0.091 0-0.138 0.531-0.123 1.046-0.153 1.59-0.155z"></path>
<path d="M23.775 10.091c0.023 0 0.046 0 0.069 0 0.014 0.418 0.014 0.418 0 0.553-0.046 0.046-0.091 0.091-0.138 0.138-0.030 0.076-0.060 0.151-0.091 0.229-0.129 0.314-0.349 0.504-0.605 0.721-0.198 0.23-0.298 0.497-0.41 0.778-0.023 0-0.046 0-0.069 0-0.032-0.397 0.022-0.591 0.276-0.899 0.138-0.115 0.276-0.23 0.415-0.346 0.284-0.351 0.412-0.752 0.553-1.175z"></path>
<path d="M30.549 9.745c0.046 0.023 0.091 0.046 0.138 0.069-0.342 0.599-0.813 1.118-1.313 1.59 0-0.207 0-0.207 0.088-0.312 0.057-0.055 0.057-0.055 0.115-0.112 0.185-0.202 0.236-0.323 0.246-0.596 0.007-0.159 0.007-0.159 0.035-0.294 0.194-0.134 0.194-0.134 0.415-0.207 0.051-0.028 0.103-0.057 0.155-0.086 0.040-0.017 0.080-0.034 0.121-0.052z"></path>
<path d="M9.4 18.661c0.023 0 0.046 0 0.069 0 0 0.114 0 0.228 0 0.346-0.068 0.034-0.068 0.034-0.138 0.069-0.003-0.115-0.003-0.23 0-0.346 0.023-0.023 0.046-0.046 0.069-0.069zM9.261 19.076c0.023 0 0.046 0 0.069 0 0.008 0.376 0 0.735-0.069 1.106-0.023 0.023-0.046 0.046-0.069 0.069-0.006 0.138-0.007 0.277-0.007 0.415 0 0.084 0 0.168 0.001 0.254 0.001 0.088 0.001 0.177 0.002 0.268 0 0.089 0.001 0.177 0.001 0.269 0.001 0.22 0.002 0.44 0.003 0.66-0.273-0.273-0.214-0.798-0.225-1.171 0.003-0.568 0.036-1.355 0.294-1.87z"></path>
<path d="M9.123 14.721c0.236 0.083 0.387 0.158 0.553 0.346 0.047 0.038 0.095 0.077 0.143 0.116 0.179 0.216 0.161 0.35 0.15 0.627-0.002 0.081-0.005 0.162-0.008 0.245-0.005 0.092-0.005 0.092-0.010 0.187-0.091 0-0.182 0-0.276 0-0.016 0.038-0.031 0.077-0.048 0.117-0.116 0.204-0.267 0.345-0.436 0.505 0-0.207 0-0.207 0.16-0.372 0.061-0.060 0.123-0.12 0.186-0.181 0.194-0.26 0.243-0.436 0.207-0.76-0.139-0.208-0.196-0.251-0.415-0.346 0-0.046 0-0.091 0-0.138-0.068 0-0.137 0-0.207 0 0-0.114 0-0.228 0-0.346z"></path>
<path d="M16.726 12.717c0.046 0.023 0.091 0.046 0.138 0.069-0.108 0.168-0.108 0.168-0.276 0.346-0.496 0.098-1.004 0.096-1.508 0.112-0.093 0.004-0.186 0.007-0.28 0.011-0.088 0.003-0.176 0.006-0.266 0.009-0.12 0.004-0.12 0.004-0.243 0.009-0.192-0.003-0.192-0.003-0.33-0.072 0-0.046 0-0.091 0-0.138 0.040 0.001 0.081 0.001 0.122 0.002 0.187 0.003 0.373 0.005 0.56 0.006 0.063 0.001 0.127 0.002 0.192 0.004 0.389 0.003 0.741-0.032 1.119-0.123 0.2-0.037 0.368-0.010 0.563 0.042 0-0.046 0-0.091 0-0.138 0.068-0.046 0.137-0.091 0.207-0.138z"></path>
<path d="M18.73 11.611c1.82-0.038 1.82-0.038 2.557 0.553 0.056 0.054 0.111 0.108 0.168 0.164 0.269 0.17 0.558 0.171 0.868 0.112 0.124-0.099 0.124-0.099 0.207-0.207-0.023 0.114-0.046 0.228-0.069 0.346-0.154 0.004-0.308 0.006-0.462 0.009-0.086 0.002-0.172 0.003-0.26 0.005-0.234-0.013-0.386-0.039-0.591-0.152-0.056-0.181-0.056-0.181-0.069-0.346-0.094-0.030-0.094-0.030-0.19-0.060-0.225-0.078-0.225-0.078-0.357-0.15-0.165-0.075-0.284-0.085-0.464-0.089-0.060-0.002-0.12-0.004-0.183-0.006s-0.125-0.003-0.189-0.005c-0.124-0.003-0.248-0.007-0.372-0.011-0.055-0.001-0.109-0.003-0.166-0.004-0.169-0.022-0.284-0.074-0.43-0.158z"></path>
<path d="M26.955 25.296c0.046 0.023 0.091 0.046 0.138 0.069-0.187 0.191-0.374 0.38-0.562 0.57-0.053 0.054-0.105 0.107-0.159 0.163-0.275 0.278-0.536 0.513-0.869 0.718-0.091 0.073-0.18 0.148-0.268 0.225-0.041 0.036-0.082 0.072-0.125 0.109-0.045 0.040-0.045 0.040-0.091 0.081-0.016-0.159-0.016-0.159 0-0.346 0.106-0.117 0.106-0.117 0.251-0.216 0.051-0.035 0.101-0.070 0.153-0.107 0.149-0.092 0.149-0.092 0.365-0.191 0.227-0.124 0.339-0.26 0.499-0.459 0.199-0.231 0.434-0.421 0.667-0.616z"></path>
<path d="M13.132 27.162c0.942 0.133 0.942 0.133 1.382 0.276-0.068 0.034-0.068 0.034-0.138 0.069 0 0.046 0 0.091 0 0.138-0.532 0.036-0.914-0.017-1.382-0.276 0.046-0.068 0.091-0.137 0.138-0.207z"></path>
<path d="M7.326 4.078c0.365 0.036 0.592 0.156 0.898 0.346 0 0.068 0 0.137 0 0.207 0.046 0 0.091 0 0.138 0 0.027 0.066 0.054 0.131 0.082 0.199 0.146 0.252 0.208 0.26 0.471 0.354 0.194 0.181 0.194 0.181 0.346 0.346-0.023 0.068-0.046 0.137-0.069 0.207-0.081-0.066-0.081-0.066-0.164-0.134-0.167-0.141-0.167-0.141-0.32-0.212 0-0.046 0-0.091 0-0.138-0.091-0.023-0.182-0.046-0.276-0.069 0-0.046 0-0.091 0-0.138-0.046 0-0.091 0-0.138 0-0.023-0.114-0.046-0.228-0.069-0.346-0.066-0.016-0.131-0.031-0.199-0.048-0.216-0.091-0.216-0.091-0.289-0.268-0.021-0.056-0.043-0.111-0.065-0.168-0.176-0.062-0.176-0.062-0.346-0.069 0-0.023 0-0.046 0-0.069z"></path>
<path d="M31.447 3.663c0.068 0.023 0.137 0.046 0.207 0.069-0.108 0.098-0.216 0.196-0.324 0.294-0.060 0.055-0.12 0.109-0.182 0.165-0.476 0.42-0.868 0.618-1.498 0.716 0.034-0.103 0.034-0.103 0.069-0.207 0.107-0.006 0.107-0.006 0.216-0.013 0.26-0.055 0.37-0.114 0.562-0.291 0.155-0.143 0.319-0.273 0.484-0.405 0.059-0.047 0.118-0.095 0.178-0.144 0.15-0.116 0.15-0.116 0.288-0.185z"></path>
<path d="M28.13 6.151c0 0.207 0 0.207 0 0.207zM27.922 6.359c0.046 0.023 0.091 0.046 0.138 0.069-0.073 0.073-0.147 0.147-0.22 0.22-0.067 0.067-0.067 0.067-0.135 0.135-0.1 0.1-0.201 0.199-0.302 0.297-0.141 0.145-0.274 0.292-0.406 0.445-0.233 0.269-0.479 0.521-0.734 0.769-0.046-0.023-0.091-0.046-0.138-0.069 0.108-0.274 0.285-0.422 0.505-0.613 0.217-0.192 0.425-0.377 0.605-0.605 0.044-0.054 0.088-0.108 0.134-0.164 0.046 0 0.091 0 0.138 0 0-0.046 0-0.091 0-0.138 0.135-0.119 0.274-0.234 0.415-0.346z"></path>
<path d="M27.577 14.099c0.091 0.023 0.182 0.046 0.276 0.069-0.064 0.061-0.128 0.123-0.194 0.186-0.179 0.179-0.299 0.355-0.428 0.575-0.103 0.124-0.209 0.244-0.318 0.363-0.101 0.126-0.168 0.251-0.235 0.397 0-0.182 0-0.365 0-0.553 0.068-0.023 0.137-0.046 0.207-0.069 0.047-0.115 0.093-0.23 0.138-0.346 0.134-0.17 0.134-0.17 0.285-0.333 0.050-0.055 0.1-0.109 0.152-0.165 0.038-0.041 0.077-0.082 0.116-0.124z"></path>
<path d="M9.469 20.181c0.023 0 0.046 0 0.069 0 0.012 0.39 0.023 0.78 0.033 1.17 0.004 0.133 0.008 0.265 0.011 0.398 0.006 0.191 0.011 0.381 0.016 0.572 0.003 0.089 0.003 0.089 0.006 0.18 0.001 0.055 0.003 0.111 0.004 0.168 0.001 0.049 0.003 0.097 0.004 0.147-0.006 0.13-0.006 0.13-0.075 0.337-0.215-0.431-0.162-1.079-0.186-1.555-0.004-0.068-0.008-0.136-0.013-0.205-0.021-0.432 0.017-0.794 0.129-1.211z"></path>
<path d="M11.404 7.948c0.023 0.046 0.046 0.091 0.069 0.138 0.046 0 0.091 0 0.138 0 0.027 0.066 0.054 0.131 0.082 0.199 0.144 0.249 0.21 0.263 0.471 0.354 0.197 0.204 0.207 0.256 0.207 0.553 0.046 0 0.091 0 0.138 0 0 0.091 0 0.182 0 0.276-0.091-0.023-0.182-0.046-0.276-0.069-0.023-0.137-0.046-0.274-0.069-0.415-0.068-0.023-0.137-0.046-0.207-0.069 0-0.046 0-0.091 0-0.138-0.068 0-0.137 0-0.207 0-0.096-0.111-0.096-0.111-0.186-0.259-0.030-0.048-0.060-0.096-0.092-0.146-0.068-0.148-0.068-0.148-0.068-0.424z"></path>
<path d="M4.631 6.635c0.277 0.185 0.282 0.383 0.346 0.691 0.013 0.054 0.026 0.107 0.039 0.163 0.065 0.273 0.117 0.522 0.099 0.805-0.046 0.023-0.091 0.046-0.138 0.069-0.006-0.051-0.011-0.103-0.017-0.155-0.034-0.198-0.034-0.198-0.192-0.305-0.194-0.231-0.167-0.446-0.153-0.732 0.001-0.051 0.003-0.103 0.004-0.156 0.003-0.127 0.008-0.253 0.013-0.38z"></path>
<path d="M4.976 6.773c0.068 0.023 0.137 0.046 0.207 0.069 0 0.046 0 0.091 0 0.138 0.046 0 0.091 0 0.138 0 0.015 0.142 0.030 0.285 0.043 0.428 0.008 0.079 0.016 0.159 0.024 0.241 0.002 0.233-0.035 0.369-0.137 0.576-0.023 0-0.046 0-0.069 0-0.009-0.063-0.017-0.125-0.026-0.19-0.038-0.199-0.085-0.327-0.181-0.501-0.080-0.241-0.079-0.438-0.069-0.691 0.023-0.023 0.046-0.046 0.069-0.069z"></path>
<path d="M4.147 3.663c-0.030 0.064-0.030 0.064-0.060 0.13-0.107 0.296-0.16 0.598-0.216 0.907-0.204-0.165-0.272-0.261-0.341-0.518-0.004-0.242-0.004-0.242 0.086-0.406 0.195-0.188 0.28-0.188 0.531-0.112z"></path>
<path d="M23.983 11.888c0.046 0.046 0.091 0.091 0.138 0.138-0.045 0.058-0.045 0.058-0.091 0.117-0.119 0.157-0.119 0.157-0.212 0.328-0.173 0.272-0.336 0.487-0.652 0.579-0.050 0.004-0.1 0.009-0.151 0.013 0.097-0.31 0.248-0.472 0.484-0.691 0.061-0.061 0.123-0.123 0.186-0.186 0.099-0.099 0.199-0.199 0.298-0.298z"></path>
<path d="M13.823 12.026c0.219 0.109 0.327 0.169 0.436 0.393 0.024 0.079 0.024 0.079 0.048 0.16-0.078 0.108-0.078 0.108-0.207 0.207-0.22-0.022-0.22-0.022-0.415-0.069-0.073-0.234-0.084-0.317 0.030-0.54 0.036-0.050 0.071-0.1 0.108-0.151z"></path>
<path d="M27.991 21.564c0.138 0.069 0.138 0.069 0.181 0.191 0.028 0.164 0.035 0.316 0.036 0.482 0 0.062 0 0.125 0 0.189s-0.001 0.129-0.001 0.196c0 0.064 0.001 0.128 0.001 0.194-0.001 0.933-0.001 0.933-0.187 1.163-0.033 0.024-0.066 0.048-0.099 0.073 0.011-0.058 0.023-0.116 0.034-0.176 0.036-0.248 0.043-0.482 0.042-0.732 0-0.045 0-0.091 0-0.138 0-0.144-0.001-0.287-0.002-0.431 0-0.098-0.001-0.196-0.001-0.294-0.001-0.239-0.002-0.478-0.003-0.717z"></path>
<path d="M32.346 7.050c0.071 0.226 0.067 0.405 0.039 0.639-0.007 0.062-0.014 0.123-0.021 0.187-0.006 0.047-0.012 0.093-0.018 0.141-0.046 0-0.091 0-0.138 0 0 0.046 0 0.091 0 0.138-0.046 0-0.091 0-0.138 0-0.014 0.047-0.029 0.094-0.043 0.143-0.125 0.266-0.296 0.485-0.51 0.687-0.046 0-0.091 0-0.138 0 0.023-0.091 0.046-0.182 0.069-0.276 0.046 0 0.091 0 0.138 0 0-0.046 0-0.091 0-0.138 0.091-0.094 0.183-0.186 0.276-0.276 0.214-0.233 0.245-0.428 0.281-0.739 0.017-0.146 0.038-0.292 0.065-0.436 0.046-0.023 0.091-0.046 0.138-0.069z"></path>
<path d="M32.138 5.253c0.030 0.066 0.030 0.066 0.060 0.134 0.066 0.153 0.066 0.153 0.216 0.212-0.023 0.068-0.046 0.137-0.069 0.207-0.006 0.068-0.011 0.137-0.017 0.207-0.052 0.207-0.052 0.207-0.229 0.337-0.083 0.038-0.083 0.038-0.168 0.078-0.014-0.395-0.023-0.736 0.138-1.106 0.023-0.023 0.046-0.046 0.069-0.069zM32.553 5.253c0 0.207 0 0.207 0 0.207z"></path>
<path d="M26.955 23.499c0.114 0.023 0.228 0.046 0.346 0.069 0.049 0.12 0.049 0.12 0.069 0.276-0.092 0.143-0.092 0.143-0.225 0.285-0.043 0.047-0.086 0.094-0.131 0.143-0.128 0.125-0.128 0.125-0.336 0.263 0.045-0.243 0.105-0.476 0.177-0.713 0.019-0.061 0.037-0.122 0.056-0.185 0.014-0.046 0.028-0.092 0.043-0.139z"></path>
<path d="M12.51 27.784c0.184 0.008 0.369 0.017 0.553 0.026 0.051 0.002 0.103 0.004 0.156 0.006 0.356 0.019 0.676 0.079 1.019 0.175 0 0.046 0 0.091 0 0.138 0.054 0.019 0.108 0.037 0.164 0.056 0.181 0.082 0.181 0.082 0.32 0.289-0.114 0-0.228 0-0.346 0 0-0.046 0-0.091 0-0.138-0.046 0-0.091 0-0.138 0 0-0.046 0-0.091 0-0.138-0.064 0.003-0.128 0.006-0.194 0.009-0.22-0.009-0.22-0.009-0.428-0.147-0.189-0.042-0.375-0.080-0.566-0.112-0.078-0.014-0.078-0.014-0.157-0.028-0.128-0.023-0.255-0.045-0.383-0.067 0-0.023 0-0.046 0-0.069z"></path>
<path d="M3.663 5.114c0.023 0 0.046 0 0.069 0 0.023 0.288 0.046 0.576 0.069 0.864 0.007 0.081 0.013 0.162 0.020 0.246 0.033 0.415 0.057 0.824 0.049 1.24-0.292-0.526-0.289-1.153-0.289-1.741 0-0.052 0-0.104 0-0.158 0.004-0.373 0.004-0.373 0.082-0.451z"></path>
<path d="M3.732 3.387c-0.023 0.068-0.046 0.137-0.069 0.207 0-0.046 0-0.091 0-0.138-0.325 0.146-0.325 0.146-0.553 0.415-0.027 0.161-0.051 0.322-0.069 0.484 0.044 0.019 0.088 0.037 0.134 0.056 0.143 0.082 0.143 0.082 0.212 0.289 0.046 0 0.091 0 0.138 0 0 0.091 0 0.182 0 0.276-0.068-0.023-0.137-0.046-0.207-0.069 0-0.068 0-0.137 0-0.207-0.043-0.017-0.086-0.034-0.13-0.052-0.183-0.107-0.221-0.161-0.285-0.363-0.053-0.476-0.053-0.476 0.143-0.76 0.248-0.169 0.393-0.167 0.687-0.138z"></path>
<path d="M24.121 11.058c0.069 0.138 0.069 0.138 0.022 0.367-0.093 0.262-0.188 0.391-0.367 0.6-0.104 0.165-0.206 0.331-0.307 0.498-0.036 0.041-0.071 0.082-0.108 0.124-0.091 0-0.182 0-0.276 0 0.141-0.247 0.297-0.461 0.479-0.678 0.237-0.291 0.405-0.569 0.557-0.911z"></path>
<path d="M33.244 4.285c0.023 0 0.046 0 0.069 0 0.004 0.18 0.006 0.36 0.009 0.54 0.001 0.051 0.002 0.102 0.004 0.155 0.002 0.267 0.001 0.391-0.15 0.619-0.030 0.105-0.030 0.105-0.060 0.212-0.078 0.203-0.078 0.203-0.225 0.298-0.043 0.014-0.086 0.029-0.13 0.043-0.023-0.046-0.046-0.091-0.069-0.138 0.069-0.115 0.138-0.231 0.207-0.346 0.049-0.186 0.049-0.186 0.069-0.346 0.046 0 0.091 0 0.138 0 0.046-0.342 0.091-0.684 0.138-1.037z"></path>
<path d="M26.125 7.326c0.046 0.023 0.091 0.046 0.138 0.069-0.031 0.028-0.063 0.055-0.095 0.083-0.129 0.142-0.182 0.271-0.255 0.448-0.201 0.423-0.516 0.657-0.894 0.92 0-0.207 0-0.207 0.069-0.346 0.046 0 0.091 0 0.138 0 0.023-0.068 0.046-0.137 0.069-0.207 0.081-0.079 0.081-0.079 0.164-0.16 0.19-0.176 0.19-0.176 0.289-0.402 0.102-0.205 0.184-0.287 0.376-0.406z"></path>
<path d="M23.706 27.853c-0.177 0.177-0.308 0.156-0.549 0.178-0.161 0.022-0.161 0.022-0.328 0.171-0.357 0.209-0.723 0.156-1.127 0.134 0-0.023 0-0.046 0-0.069 0.072-0.013 0.072-0.013 0.146-0.025 0.094-0.017 0.094-0.017 0.191-0.035 0.063-0.011 0.125-0.022 0.19-0.034 0.176-0.032 0.176-0.032 0.303-0.182 0.395-0.148 0.756-0.153 1.175-0.138z"></path>
<path d="M23.637 11.127c0.068 0.034 0.068 0.034 0.138 0.069-0.068 0.034-0.068 0.034-0.138 0.069 0-0.046 0-0.091 0-0.138zM23.43 11.335c0.046 0.023 0.091 0.046 0.138 0.069-0.065 0.058-0.065 0.058-0.131 0.117-0.363 0.339-0.566 0.561-0.629 1.058 0.046 0.023 0.091 0.046 0.138 0.069-0.114 0.046-0.228 0.091-0.346 0.138 0.066-0.644 0.224-0.959 0.716-1.363 0.038-0.029 0.075-0.059 0.114-0.089z"></path>
<path d="M21.126 12.963c0.078 0.010 0.155 0.019 0.235 0.029 0.081 0.010 0.163 0.021 0.246 0.032s0.164 0.020 0.248 0.031c0.203 0.025 0.405 0.051 0.607 0.077 0 0.023 0 0.046 0 0.069-0.634 0.056-1.232 0.077-1.866 0 0-0.068 0-0.137 0-0.207 0.192-0.096 0.318-0.057 0.53-0.030z"></path>
<path d="M28.337 5.184c0.046 0.023 0.091 0.046 0.138 0.069-0.041 0.038-0.083 0.077-0.125 0.117-0.151 0.159-0.247 0.317-0.359 0.505-0.108 0.125-0.108 0.125-0.207 0.207-0.046 0-0.091 0-0.138 0-0.017 0.041-0.034 0.083-0.052 0.125-0.098 0.171-0.2 0.25-0.363 0.359 0.273-0.568 0.614-0.994 1.106-1.382z"></path>
<path d="M4.216 3.594c0.046 0.023 0.091 0.046 0.138 0.069-0.033 0.027-0.067 0.053-0.101 0.081-0.141 0.169-0.135 0.276-0.141 0.495-0.002 0.071-0.005 0.142-0.007 0.215s-0.003 0.148-0.005 0.224c-0.002 0.075-0.005 0.15-0.007 0.227-0.006 0.185-0.010 0.37-0.014 0.555-0.215-0.215-0.204-0.469-0.207-0.76 0.068-0.814 0.068-0.814 0.247-1.029 0.032-0.025 0.065-0.051 0.098-0.077z"></path>
<path d="M11.749 27.162c0.171 0.034 0.171 0.034 0.346 0.069 0 0.068 0 0.137 0 0.207 0.079 0.013 0.079 0.013 0.16 0.026 0.186 0.043 0.186 0.043 0.393 0.181 0.205 0.032 0.205 0.032 0.428 0.043 0.075 0.005 0.15 0.010 0.228 0.016 0.086 0.005 0.086 0.005 0.174 0.010 0 0.046 0 0.091 0 0.138-0.109 0.002-0.219 0.003-0.328 0.004-0.091 0.001-0.091 0.001-0.185 0.002-0.163-0.006-0.299-0.030-0.455-0.076 0-0.046 0-0.091 0-0.138-0.16-0.023-0.319-0.046-0.484-0.069-0.007-0.044-0.014-0.088-0.022-0.134-0.016-0.047-0.031-0.094-0.048-0.143-0.068-0.023-0.137-0.046-0.207-0.069 0-0.023 0-0.046 0-0.069z"></path>
<path d="M10.022 17.209c0.069 0.207 0.069 0.207 0.025 0.341-0.241 0.473-0.241 0.473-0.509 0.626-0.069-0.138-0.069-0.138-0.022-0.333 0.111-0.269 0.238-0.501 0.505-0.635z"></path>
<path d="M4.959 3.715c0.081 0.002 0.162 0.005 0.245 0.008 0.062 0.003 0.123 0.006 0.187 0.010 0.023 0.068 0.046 0.137 0.069 0.207-0.207 0.069-0.207 0.069-0.359 0.004-0.041-0.024-0.083-0.048-0.125-0.073-0.023 0.046-0.046 0.091-0.069 0.138-0.091-0.046-0.182-0.091-0.276-0.138-0.184 0.172-0.315 0.32-0.415 0.553-0.022-0.238-0.033-0.369 0.11-0.566 0.221-0.167 0.359-0.154 0.633-0.143z"></path>
<path d="M28.406 12.51c0.068 0.023 0.137 0.046 0.207 0.069-0.042 0.040-0.083 0.080-0.126 0.121-0.36 0.342-0.36 0.342-0.647 0.742-0.125 0.173-0.125 0.173-0.35 0.233-0.063 0.003-0.125 0.006-0.19 0.009 0.023-0.046 0.046-0.091 0.069-0.138 0.143-0.043 0.143-0.043 0.276-0.069 0.023-0.114 0.046-0.228 0.069-0.346 0.046 0 0.091 0 0.138 0 0.123-0.121 0.123-0.121 0.246-0.272 0.043-0.051 0.086-0.101 0.13-0.153 0.036-0.042 0.071-0.084 0.108-0.128 0.023-0.023 0.046-0.046 0.069-0.069z"></path>
<path d="M28.060 18.315c0.217 0.217 0.205 0.462 0.207 0.76-0.033 0.257-0.081 0.508-0.138 0.76-0.046 0-0.091 0-0.138 0 0.023-0.502 0.046-1.004 0.069-1.521z"></path>
<path d="M26.402 14.86c0.046 0.023 0.091 0.046 0.138 0.069-0.043 0.051-0.086 0.103-0.13 0.155-0.171 0.222-0.266 0.41-0.354 0.674-0.023 0.068-0.046 0.137-0.069 0.207-0.117-0.186-0.117-0.186-0.207-0.415 0.116-0.317 0.363-0.49 0.622-0.691z"></path>
<path d="M26.678 14.307c0.023 0.068 0.046 0.137 0.069 0.207-0.053 0.045-0.107 0.090-0.161 0.137-0.070 0.061-0.14 0.122-0.21 0.183-0.069 0.059-0.138 0.119-0.209 0.18-0.265 0.283-0.321 0.579-0.387 0.952-0.023 0-0.046 0-0.069 0-0.047-0.243-0.055-0.449 0-0.691 0.201-0.265 0.44-0.474 0.691-0.691 0.093-0.091 0.185-0.183 0.276-0.276z"></path>
<path d="M14.238 13.201c0.502 0 1.004 0 1.521 0-0.207 0.207-0.207 0.207-0.374 0.23-0.063-0.002-0.126-0.004-0.191-0.005-0.101-0.003-0.101-0.003-0.203-0.005-0.253-0.015-0.501-0.043-0.752-0.081 0-0.046 0-0.091 0-0.138z"></path>
<path d="M31.032 3.456c-0.389 0.207-0.389 0.207-0.622 0.207-0.026 0.060-0.026 0.060-0.052 0.122-0.097 0.176-0.204 0.284-0.354 0.418-0.047 0.043-0.094 0.086-0.142 0.131-0.143 0.089-0.143 0.089-0.299 0.069-0.040-0.016-0.079-0.032-0.12-0.048 0.042-0.026 0.083-0.052 0.126-0.079 0.317-0.203 0.539-0.385 0.772-0.682 0.411-0.257 0.411-0.257 0.691-0.138z"></path>
<path d="M9.676 25.434c0.213 0.064 0.321 0.098 0.44 0.291 0.024 0.059 0.049 0.119 0.074 0.18 0.15 0.331 0.296 0.497 0.592 0.704-0.046 0.023-0.091 0.046-0.138 0.069-0.375-0.125-0.527-0.396-0.704-0.734-0.035-0.066-0.070-0.133-0.107-0.201-0.053-0.102-0.105-0.205-0.157-0.308z"></path>
<path d="M25.089 10.367c0.046 0.023 0.091 0.046 0.138 0.069-0.329 0.387-0.674 0.751-1.037 1.106-0.046-0.046-0.091-0.091-0.138-0.138 0.346-0.346 0.691-0.691 1.037-1.037z"></path>
<path d="M16.795 11.788c0.073 0.002 0.147 0.004 0.222 0.007 0.18 0.006 0.359 0.014 0.538 0.024 0 0.023 0 0.046 0 0.069-0.041 0-0.082-0.001-0.124-0.001-0.902-0.048-0.902-0.048-1.681 0.312-0.066 0.081-0.133 0.161-0.199 0.242-0.068 0.023-0.137 0.046-0.207 0.069 0.228-0.684 0.816-0.758 1.451-0.721z"></path>
<path d="M12.51 9.469c0.023 0.091 0.046 0.182 0.069 0.276 0.068 0.023 0.137 0.046 0.207 0.069 0.020 0.066 0.040 0.131 0.060 0.199 0.093 0.258 0.181 0.309 0.423 0.423-0.023 0.046-0.046 0.091-0.069 0.138-0.203-0.052-0.203-0.052-0.415-0.138-0.048-0.143-0.048-0.143-0.069-0.276-0.068-0.023-0.137-0.046-0.207-0.069 0-0.205 0-0.411 0-0.622z"></path>
<path d="M4.708 3.555c0.232 0.045 0.448 0.041 0.683 0.035 0.137 0.004 0.137 0.004 0.276 0.073 0 0.046 0 0.091 0 0.138-0.433 0-0.867 0-1.313 0 0-0.068 0-0.137 0-0.207 0.207-0.069 0.207-0.069 0.354-0.039z"></path>
<path d="M16.311 12.51c0.186 0.022 0.186 0.022 0.346 0.069-0.069 0.207-0.069 0.207-0.285 0.328-0.265 0.106-0.473 0.080-0.752 0.017 0-0.023 0-0.046 0-0.069 0.076-0.019 0.151-0.037 0.229-0.056 0.25-0.058 0.25-0.058 0.367-0.199 0.031-0.030 0.063-0.060 0.095-0.091z"></path>
<path d="M24.812 8.847c0.046 0.023 0.091 0.046 0.138 0.069-0.19 0.587-0.603 0.866-1.106 1.175 0.143-0.303 0.321-0.484 0.592-0.682 0.193-0.168 0.275-0.328 0.376-0.562z"></path>
<path d="M3.801 6.289c0.16 0.16 0.165 0.22 0.197 0.439 0.009 0.059 0.018 0.118 0.027 0.178s0.017 0.123 0.026 0.186c0.009 0.062 0.019 0.124 0.028 0.188 0.023 0.153 0.045 0.307 0.067 0.46-0.239-0.217-0.313-0.346-0.34-0.675-0.010-0.259-0.011-0.518-0.006-0.777z"></path>
<path d="M32.415 3.663c0 0.046 0 0.091 0 0.138-0.231 0.14-0.406 0.153-0.674 0.147-0.068-0.001-0.136-0.002-0.206-0.004-0.078-0.002-0.078-0.002-0.157-0.005 0.253-0.385 0.626-0.302 1.037-0.276z"></path>
<path d="M10.713 7.326c0.114 0.023 0.228 0.046 0.346 0.069 0 0.046 0 0.091 0 0.138 0.091 0 0.182 0 0.276 0 0 0.16 0 0.319 0 0.484-0.016-0.044-0.031-0.088-0.048-0.134-0.079-0.161-0.079-0.161-0.259-0.181-0.058-0.010-0.117-0.020-0.177-0.030-0.125-0.108-0.125-0.108-0.207-0.207 0.023-0.046 0.046-0.091 0.069-0.138z"></path>
<path d="M23.153 12.855c-0.138 0.207-0.138 0.207-0.307 0.255-0.336 0.029-0.67 0.027-1.006 0.022 0-0.023 0-0.046 0-0.069 0.205 0 0.411 0 0.622 0 0.023-0.068 0.046-0.137 0.069-0.207 0.467-0.078 0.467-0.078 0.622 0z"></path>
<path d="M14.307 12.51c0.137 0.046 0.274 0.091 0.415 0.138-0.073 0.138-0.073 0.138-0.207 0.276-0.255 0.017-0.255 0.017-0.484 0 0.080-0.171 0.142-0.28 0.276-0.415z"></path>
<path d="M13.132 27.162c0.942 0.133 0.942 0.133 1.382 0.276 0 0.023 0 0.046 0 0.069-1.022-0.054-1.022-0.054-1.451-0.207 0.023-0.046 0.046-0.091 0.069-0.138z"></path>
<path d="M10.16 25.918c0.068 0.023 0.137 0.046 0.207 0.069 0 0.046 0 0.091 0 0.138 0.046 0 0.091 0 0.138 0 0 0.046 0 0.091 0 0.138 0.046 0 0.091 0 0.138 0 0 0.046 0 0.091 0 0.138 0.091 0.023 0.182 0.046 0.276 0.069 0 0.046 0 0.091 0 0.138 0.046 0.023 0.091 0.046 0.138 0.069-0.321-0.019-0.493-0.169-0.729-0.369-0.113-0.13-0.142-0.224-0.17-0.392z"></path>
<path d="M9.123 22.117c0.143 0.285 0.167 0.502 0.181 0.812 0.003 0.048 0.005 0.096 0.008 0.146 0.006 0.118 0.012 0.237 0.018 0.355-0.068 0.023-0.137 0.046-0.207 0.069 0-0.456 0-0.912 0-1.382z"></path>
<path d="M8.847 21.909c0.023 0.068 0.046 0.137 0.069 0.207 0.046 0 0.091 0 0.138 0 0.023 0.274 0.046 0.547 0.069 0.829-0.068 0.023-0.137 0.046-0.207 0.069-0.023-0.365-0.046-0.73-0.069-1.106z"></path>
<path d="M14.721 28.475c0.717 0 0.717 0 1.037 0.069-0.172 0.172-0.243 0.186-0.484 0.207-0.189-0.035-0.368-0.085-0.553-0.138 0-0.046 0-0.091 0-0.138z"></path>
<path d="M23.499 27.369c-0.091 0.091-0.182 0.182-0.276 0.276 0.16 0.023 0.319 0.046 0.484 0.069 0 0.023 0 0.046 0 0.069-0.228 0-0.456 0-0.691 0-0.046-0.091-0.091-0.182-0.138-0.276 0.237-0.158 0.345-0.151 0.622-0.138z"></path>
<path d="M4.631 6.635c0.023 0 0.046 0 0.069 0 0.079 0.46 0.154 0.919 0.207 1.382-0.137-0.103-0.137-0.103-0.276-0.276-0.020-0.2-0.026-0.372-0.017-0.57 0.001-0.051 0.003-0.103 0.004-0.156 0.003-0.127 0.008-0.253 0.013-0.38z"></path>
<path d="M32.553 5.253c0 0.207 0 0.207 0 0.207zM32.276 5.529c0.046 0.023 0.091 0.046 0.138 0.069-0.023 0.068-0.046 0.137-0.069 0.207-0.009 0.070-0.017 0.14-0.026 0.212-0.043 0.203-0.043 0.203-0.251 0.341 0.008-0.099 0.017-0.199 0.026-0.298 0.005-0.055 0.010-0.111 0.015-0.168 0.029-0.156 0.029-0.156 0.167-0.364z"></path>
<path d="M29.305 4.423c0.046 0.023 0.091 0.046 0.138 0.069-0.075 0.056-0.075 0.056-0.151 0.112-0.212 0.179-0.368 0.363-0.54 0.579-0.091-0.023-0.182-0.046-0.276-0.069 0.095-0.104 0.095-0.104 0.207-0.207 0.046 0 0.091 0 0.138 0 0-0.046 0-0.091 0-0.138 0.106-0.089 0.106-0.089 0.242-0.181 0.045-0.031 0.090-0.062 0.136-0.093 0.052-0.035 0.052-0.035 0.106-0.071z"></path>
<path d="M8.847 23.43c0.046 0 0.091 0 0.138 0 0.090 0.398 0.156 0.766 0.138 1.175-0.047-0.091-0.093-0.184-0.138-0.276-0.026-0.051-0.051-0.103-0.078-0.155-0.082-0.257-0.070-0.474-0.060-0.743z"></path>
<path d="M8.225 22.255c0.023 0 0.046 0 0.069 0 0.012 0.047 0.024 0.093 0.036 0.141 0.123 0.472 0.123 0.472 0.448 0.826-0.181 0-0.312-0.022-0.484-0.069-0.076-0.305-0.074-0.586-0.069-0.898z"></path>
<path d="M31.102 9.538c0.023 0 0.046 0 0.069 0-0.027 0.393-0.053 0.614-0.346 0.899-0.158 0.122-0.318 0.234-0.484 0.346 0.025-0.133 0.025-0.133 0.069-0.276 0.053-0.030 0.105-0.060 0.16-0.091 0.29-0.182 0.413-0.441 0.514-0.769 0.006-0.036 0.011-0.071 0.017-0.108z"></path>
<path d="M10.091 16.657c0.023 0.046 0.046 0.091 0.069 0.138-0.075 0.088-0.149 0.176-0.225 0.264-0.042 0.049-0.083 0.098-0.126 0.148-0.128 0.136-0.257 0.242-0.409 0.349 0.127-0.392 0.347-0.669 0.691-0.898z"></path>
<path d="M27.853 24.052c0 0.207 0 0.207-0.121 0.349-0.051 0.049-0.103 0.098-0.155 0.148-0.051 0.049-0.103 0.099-0.155 0.15-0.040 0.038-0.080 0.075-0.121 0.114-0.023-0.068-0.046-0.137-0.069-0.207 0.197-0.203 0.391-0.39 0.622-0.553z"></path>
<path d="M23.499 11.611c0.046 0.023 0.091 0.046 0.138 0.069-0.064 0.1-0.129 0.199-0.194 0.298-0.036 0.055-0.072 0.111-0.109 0.168-0.097 0.137-0.195 0.25-0.318 0.364 0.020-0.413 0.209-0.615 0.484-0.899z"></path>
<path d="M24.121 11.058c0.069 0.138 0.069 0.138 0.022 0.371-0.090 0.249-0.167 0.36-0.367 0.527-0.046-0.023-0.091-0.046-0.138-0.069 0.029-0.034 0.057-0.068 0.086-0.104 0.16-0.229 0.277-0.474 0.397-0.726z"></path>
<path d="M27.922 23.222c0.091 0.278 0.039 0.438-0.067 0.702-0.102 0.181-0.23 0.253-0.417 0.334 0.019-0.037 0.038-0.075 0.058-0.113 0.091-0.185 0.177-0.372 0.262-0.56 0.031-0.068 0.062-0.136 0.093-0.206 0.023-0.052 0.047-0.103 0.071-0.157z"></path>
<path d="M14.652 12.579c0.114 0 0.228 0 0.346 0-0.023 0.137-0.046 0.274-0.069 0.415-0.114 0-0.228 0-0.346 0 0-0.207 0-0.207 0.069-0.415z"></path>
<path d="M18.549 12c0.060 0.009 0.12 0.017 0.181 0.026 0.125 0.173 0.125 0.173 0.207 0.346-0.137 0-0.274 0-0.415 0-0.023-0.068-0.046-0.137-0.069-0.207-0.046-0.023-0.091-0.046-0.138-0.069 0.069-0.069 0.069-0.069 0.233-0.095z"></path>
<path d="M13.063 10.505c0.068 0.023 0.137 0.046 0.207 0.069 0 0.046 0 0.091 0 0.138 0.046 0 0.091 0 0.138 0 0.023 0.16 0.046 0.319 0.069 0.484-0.091 0.023-0.182 0.046-0.276 0.069 0.003-0.074 0.006-0.148 0.009-0.225-0.008-0.236-0.023-0.343-0.147-0.536z"></path>
<path d="M9.607 6.22c0.274 0.039 0.461 0.125 0.691 0.276-0.023 0.091-0.046 0.182-0.069 0.276-0.027-0.031-0.054-0.063-0.082-0.095-0.123-0.124-0.123-0.124-0.307-0.181-0.054-0.023-0.108-0.046-0.164-0.069-0.023-0.068-0.046-0.137-0.069-0.207z"></path>
<path d="M3.508 3.365c0.074 0.007 0.148 0.014 0.225 0.022-0.023 0.068-0.046 0.137-0.069 0.207 0-0.046 0-0.091 0-0.138-0.288 0.107-0.288 0.107-0.488 0.329-0.050 0.119-0.092 0.24-0.134 0.362-0.023 0-0.046 0-0.069 0-0.023-0.252-0.014-0.388 0.108-0.613 0.168-0.147 0.168-0.147 0.428-0.168z"></path>
<path d="M25.78 25.918c-0.069 0.172-0.117 0.262-0.272 0.367-0.143 0.048-0.143 0.048-0.35-0.022 0.389-0.346 0.389-0.346 0.622-0.346z"></path>
<path d="M9.054 18.868c0.039 0.134 0.039 0.134 0.069 0.276-0.023 0.023-0.046 0.046-0.069 0.069-0.027 0.139-0.051 0.279-0.073 0.419-0.012 0.076-0.024 0.153-0.037 0.231-0.009 0.059-0.018 0.118-0.028 0.179-0.023 0-0.046 0-0.069 0-0.024-0.45-0.003-0.772 0.207-1.175z"></path>
<path d="M27.093 16.242c0.132 0.226 0.163 0.414 0.181 0.674 0.005 0.068 0.010 0.136 0.016 0.206 0.005 0.078 0.005 0.078 0.010 0.157-0.189-0.284-0.294-0.55-0.251-0.894 0.014-0.047 0.029-0.094 0.043-0.143z"></path>
<path d="M13.961 13.063c0.121-0.004 0.242-0.006 0.363-0.009 0.067-0.002 0.135-0.003 0.204-0.005 0.195 0.014 0.305 0.052 0.47 0.152-0.147 0.013-0.294 0.026-0.441 0.039-0.082 0.007-0.164 0.014-0.248 0.022-0.21 0.008-0.21 0.008-0.348-0.061 0-0.046 0-0.091 0-0.138z"></path>
<path d="M15.343 12.095c0.023 0.046 0.046 0.091 0.069 0.138-0.068 0.103-0.068 0.103-0.138 0.207-0.046 0-0.091 0-0.138 0 0 0.046 0 0.091 0 0.138-0.205 0-0.411 0-0.622 0-0.023-0.046-0.046-0.091-0.069-0.138 0.071 0.007 0.143 0.014 0.216 0.022 0.348-0.028 0.438-0.129 0.682-0.367z"></path>
<path d="M6.151 11.197c0.068 0.034 0.068 0.034 0.138 0.069 0 0.046 0 0.091 0 0.138 0.079 0.026 0.079 0.026 0.16 0.052 0.204 0.095 0.286 0.166 0.393 0.363-0.023 0.068-0.046 0.137-0.069 0.207-0.155-0.142-0.207-0.208-0.276-0.415-0.173-0.084-0.173-0.084-0.346-0.138 0-0.091 0-0.182 0-0.276z"></path>
<path d="M7.326 4.078c0.365 0.036 0.592 0.156 0.898 0.346-0.023 0.068-0.046 0.137-0.069 0.207 0-0.046 0-0.091 0-0.138-0.16-0.046-0.319-0.091-0.484-0.138 0-0.046 0-0.091 0-0.138-0.114-0.023-0.228-0.046-0.346-0.069 0-0.023 0-0.046 0-0.069z"></path>
<path d="M32 3.317c0.135-0.004 0.271-0.006 0.406-0.009 0.113-0.002 0.113-0.002 0.228-0.005 0.195 0.014 0.195 0.014 0.333 0.152-0.226 0.071-0.405 0.067-0.639 0.039-0.062-0.007-0.123-0.014-0.187-0.021-0.047-0.006-0.093-0.012-0.141-0.018 0-0.046 0-0.091 0-0.138z"></path>
<path d="M26.747 23.499c0.068 0 0.137 0 0.207 0-0.019 0.114-0.040 0.228-0.060 0.341-0.011 0.063-0.022 0.127-0.034 0.192-0.014 0.052-0.029 0.104-0.044 0.158-0.068 0.034-0.068 0.034-0.138 0.069-0.009-0.527-0.009-0.527 0.069-0.76z"></path>
<path d="M3.663 3.663c0.046 0.023 0.091 0.046 0.138 0.069-0.011 0.073-0.023 0.145-0.035 0.22-0.027 0.209-0.041 0.4-0.035 0.609-0.108-0.108-0.108-0.108-0.207-0.276 0.016-0.229 0.035-0.415 0.138-0.622z"></path>
<path d="M7.464 11.542c0.068 0 0.137 0 0.207 0 0.023 0.182 0.046 0.365 0.069 0.553-0.091 0-0.182 0-0.276 0 0-0.182 0-0.365 0-0.553z"></path>
<path d="M24.674 10.091c0.023 0.046 0.046 0.091 0.069 0.138-0.144 0.314-0.355 0.483-0.622 0.691 0.097-0.21 0.213-0.387 0.354-0.57 0.056-0.073 0.056-0.073 0.113-0.148 0.028-0.037 0.057-0.073 0.086-0.111z"></path>
<path d="M4.631 8.501c0.185 0.213 0.236 0.359 0.255 0.639 0.005 0.062 0.009 0.123 0.014 0.187 0.003 0.047 0.005 0.093 0.008 0.141-0.138-0.069-0.138-0.069-0.216-0.251-0.064-0.248-0.071-0.462-0.060-0.717z"></path>
<path d="M30.41 9.952c0.046 0.046 0.091 0.091 0.138 0.138-0.16 0.182-0.319 0.365-0.484 0.553 0-0.285 0.144-0.49 0.346-0.691z"></path>
<path d="M10.505 24.674c0.023 0 0.046 0 0.069 0 0 0.16 0 0.319 0 0.484 0.114 0.023 0.228 0.046 0.346 0.069 0 0.046 0 0.091 0 0.138-0.137 0-0.274 0-0.415 0 0-0.228 0-0.456 0-0.691z"></path>
<path d="M15.758 12.51c0.114 0 0.228 0 0.346 0 0 0.068 0 0.137 0 0.207-0.228 0.023-0.456 0.046-0.691 0.069 0.091-0.023 0.182-0.046 0.276-0.069 0.023-0.068 0.046-0.137 0.069-0.207z"></path>
<path d="M6.359 10.229c0.152 0.304 0.174 0.497 0.207 0.829-0.068-0.023-0.137-0.046-0.207-0.069 0-0.251 0-0.502 0-0.76z"></path>
<path d="M4.907 6.842c0.216 0.216 0.211 0.413 0.212 0.708-0.001 0.086-0.003 0.171-0.004 0.259-0.174-0.337-0.215-0.587-0.207-0.968z"></path>
<path d="M3.94 4.631c0.148 0.221 0.154 0.278 0.147 0.531-0.001 0.056-0.003 0.112-0.004 0.169-0.002 0.043-0.003 0.085-0.005 0.129-0.164-0.164-0.164-0.228-0.186-0.454-0.006-0.056-0.012-0.111-0.018-0.169-0.001-0.046-0.002-0.091-0.003-0.138 0.023-0.023 0.046-0.046 0.069-0.069z"></path>
<path d="M4.648 3.749c0.060 0.026 0.060 0.026 0.121 0.052-0.067 0.038-0.134 0.077-0.203 0.117-0.225 0.138-0.225 0.138-0.272 0.35-0.003 0.051-0.006 0.103-0.009 0.155-0.023 0-0.046 0-0.069 0-0.023-0.252-0.029-0.374 0.121-0.583 0.155-0.108 0.155-0.108 0.311-0.091z"></path>
<path d="M9.607 15.274c0.268 0.13 0.268 0.13 0.346 0.207 0.005 0.128 0.006 0.256 0.004 0.384-0.001 0.070-0.001 0.14-0.002 0.212-0.001 0.054-0.002 0.108-0.002 0.164-0.046 0-0.091 0-0.138 0 0.023-0.228 0.046-0.456 0.069-0.691-0.068-0.023-0.137-0.046-0.207-0.069-0.023-0.068-0.046-0.137-0.069-0.207z"></path>
<path d="M30.963 9.123c0.023 0.068 0.046 0.137 0.069 0.207-0.182 0.16-0.365 0.319-0.553 0.484 0-0.207 0-0.207 0.106-0.333 0.045-0.043 0.090-0.085 0.136-0.129s0.090-0.086 0.136-0.13c0.052-0.049 0.052-0.049 0.106-0.099z"></path>
<path d="M31.724 3.456c0.16 0 0.319 0 0.484 0-0.023 0.068-0.046 0.137-0.069 0.207-0.182 0-0.365 0-0.553 0 0.046-0.023 0.091-0.046 0.138-0.069 0-0.046 0-0.091 0-0.138z"></path>
<path d="M9.4 24.95c0.229 0.068 0.329 0.117 0.475 0.311 0.026 0.057 0.051 0.114 0.078 0.173-0.023 0.046-0.046 0.091-0.069 0.138-0.205-0.194-0.376-0.358-0.484-0.622z"></path>
<path d="M9.883 17.555c0.046 0.023 0.091 0.046 0.138 0.069-0.251 0.397-0.251 0.397-0.484 0.553 0-0.303 0.147-0.399 0.346-0.622z"></path>
<path d="M9.745 16.38c0.023 0.046 0.046 0.091 0.069 0.138-0.16 0.182-0.319 0.365-0.484 0.553-0.023-0.068-0.046-0.137-0.069-0.207 0.161-0.161 0.323-0.323 0.484-0.484z"></path>
<path d="M22.877 11.68c0.046 0.023 0.091 0.046 0.138 0.069-0.045 0.073-0.045 0.073-0.091 0.147-0.118 0.2-0.222 0.405-0.324 0.613-0.045-0.12-0.045-0.12-0.069-0.276 0.069-0.148 0.069-0.148 0.168-0.294 0.033-0.049 0.065-0.098 0.099-0.148 0.026-0.037 0.052-0.073 0.078-0.111z"></path>
<path d="M6.151 11.473c0.253 0.062 0.384 0.1 0.549 0.307 0.073 0.177 0.073 0.177 0.004 0.384-0.040-0.063-0.080-0.125-0.121-0.19-0.133-0.191-0.262-0.343-0.432-0.501z"></path>
<path d="M30.134 11.127c0.023 0 0.046 0 0.069 0 0.022 0.19 0.022 0.19 0 0.415-0.173 0.164-0.173 0.164-0.346 0.276-0.046-0.023-0.091-0.046-0.138-0.069 0.043-0.039 0.086-0.077 0.13-0.117 0.151-0.164 0.215-0.296 0.285-0.505z"></path>
<path d="M30.065 9.952c0.046 0.046 0.091 0.091 0.138 0.138-0.137 0.205-0.137 0.205-0.276 0.415-0.065-0.208-0.072-0.267 0-0.484 0.046-0.023 0.091-0.046 0.138-0.069z"></path>
<path d="M32.415 3.663c0 0.046 0 0.091 0 0.138-0.251 0.161-0.468 0.149-0.76 0.138 0.215-0.215 0.46-0.276 0.76-0.276z"></path>
<path d="M4.907 3.594c0.101-0.002 0.202-0.003 0.302-0.004 0.056-0.001 0.112-0.002 0.17-0.002 0.15 0.007 0.15 0.007 0.288 0.076 0 0.046 0 0.091 0 0.138-0.284-0.033-0.509-0.071-0.76-0.207z"></path>
<path d="M9.676 25.434c0.164 0.048 0.164 0.048 0.346 0.138 0.091 0.181 0.091 0.181 0.138 0.346-0.068 0-0.137 0-0.207 0-0.137-0.239-0.137-0.239-0.276-0.484z"></path>
<path d="M23.499 12.095c0.023 0.046 0.046 0.091 0.069 0.138-0.114 0.137-0.228 0.274-0.346 0.415-0.046-0.023-0.091-0.046-0.138-0.069 0.137-0.16 0.274-0.319 0.415-0.484z"></path>
<path d="M23.499 11.819c0.023 0.068 0.046 0.137 0.069 0.207-0.084 0.141-0.084 0.141-0.203 0.289-0.039 0.049-0.078 0.099-0.119 0.15-0.031 0.037-0.061 0.075-0.093 0.114-0.023-0.068-0.046-0.137-0.069-0.207 0.084-0.141 0.084-0.141 0.203-0.289 0.039-0.049 0.078-0.099 0.119-0.15 0.031-0.037 0.061-0.075 0.093-0.114z"></path>
<path d="M23.637 11.127c0.068 0.034 0.068 0.034 0.138 0.069-0.068 0.034-0.068 0.034-0.138 0.069 0-0.046 0-0.091 0-0.138zM23.43 11.335c0.046 0.023 0.091 0.046 0.138 0.069-0.114 0.114-0.228 0.228-0.346 0.346-0.068-0.023-0.137-0.046-0.207-0.069 0.137-0.114 0.274-0.228 0.415-0.346z"></path>
<path d="M10.505 17.002c0.023 0.068 0.046 0.137 0.069 0.207-0.114 0.114-0.228 0.228-0.346 0.346-0.046-0.023-0.091-0.046-0.138-0.069 0.137-0.16 0.274-0.319 0.415-0.484z"></path>
<path d="M22.531 12.51c0.023 0.091 0.046 0.182 0.069 0.276 0.091-0.023 0.182-0.046 0.276-0.069-0.069 0.138-0.069 0.138-0.281 0.216-0.067 0.020-0.134 0.040-0.203 0.060 0.060-0.328 0.060-0.328 0.138-0.484z"></path>
<path d="M22.739 12.371c0.023 0.068 0.046 0.137 0.069 0.207 0.046 0.023 0.091 0.046 0.138 0.069-0.114 0.046-0.228 0.091-0.346 0.138 0-0.114 0-0.228 0-0.346 0.046-0.023 0.091-0.046 0.138-0.069z"></path>
<path d="M4.147 7.741c0.199 0.027 0.264 0.055 0.397 0.212 0.029 0.044 0.057 0.088 0.086 0.134-0.023 0.046-0.046 0.091-0.069 0.138-0.141-0.112-0.279-0.227-0.415-0.346 0-0.046 0-0.091 0-0.138z"></path>
<path d="M27.3 23.637c0.023 0.068 0.046 0.137 0.069 0.207-0.091 0.091-0.182 0.182-0.276 0.276-0.023-0.046-0.046-0.091-0.069-0.138 0.102-0.258 0.102-0.258 0.276-0.346z"></path>
<path d="M9.123 22.877c0.108 0.121 0.108 0.121 0.207 0.276-0.013 0.151-0.013 0.151-0.069 0.276-0.068 0.034-0.068 0.034-0.138 0.069 0-0.205 0-0.411 0-0.622z"></path>
<path d="M14.307 12.51c0.023 0.046 0.046 0.091 0.069 0.138 0.046 0 0.091 0 0.138 0 0 0.046 0 0.091 0 0.138-0.16 0.023-0.319 0.046-0.484 0.069 0.091-0.114 0.182-0.228 0.276-0.346z"></path>
<path d="M22.462 12.233c0.039 0.134 0.039 0.134 0.069 0.276-0.069 0.069-0.069 0.069-0.227 0.076-0.095-0.001-0.095-0.001-0.192-0.002-0.064-0.001-0.127-0.001-0.192-0.002-0.049-0.001-0.098-0.002-0.149-0.002 0-0.023 0-0.046 0-0.069 0.209-0.017 0.209-0.017 0.418-0.034 0.162-0.027 0.162-0.027 0.273-0.243z"></path>
</svg>
